<svg width="64" height="52" viewBox="0 0 64 52" fill="none" xmlns="http://www.w3.org/2000/svg">
<path d="M45.3933 51.9821C45.3343 51.9821 45.3048 51.9821 45.2753 51.9821H12.565C3.89338 51.3627 0 44.6672 0 38.7387C0 33.4295 3.09701 27.5305 9.82194 25.9082C6.87241 14.5822 12.4765 6.64793 19.0835 2.90202C26.7522 -1.46328 38.1669 -1.49278 45.0983 6.91339C45.1573 7.00187 45.2163 7.09036 45.2753 7.17884C47.34 9.80393 48.7852 12.9599 49.6111 16.6173C53.239 17.4137 56.3655 19.3604 58.8136 22.2508C64.3883 28.8283 65.4501 40.2724 57.4864 47.2923C54.1829 50.3303 49.9061 51.9821 45.3933 51.9821ZM30.1147 4.40629C26.9882 4.40629 23.8912 5.26165 21.2956 6.73642C14.1577 10.8068 11.7391 18.3576 14.8066 26.97C15.0426 27.6484 14.9541 28.4153 14.5412 28.9757C14.1283 29.5361 13.4499 29.9196 12.742 29.9196C7.01988 30.3325 4.45379 34.6388 4.45379 38.7387C4.45379 42.8385 7.01988 47.1448 12.742 47.5873H45.3048C48.7262 47.6168 52.0297 46.3485 54.5368 44.0478L54.5663 44.0183C60.5539 38.7682 59.669 30.126 55.4512 25.1413C53.3865 22.6932 50.6434 21.189 47.4874 20.776C46.5141 20.6581 45.7472 19.9208 45.5997 18.9475C44.9803 15.2901 43.6825 12.2225 41.7359 9.80393C41.6769 9.74494 41.6474 9.65645 41.5884 9.59746C38.4619 5.94004 34.2735 4.40629 30.1147 4.40629Z" fill="white"/>
<path d="M17.634 31.1303C17.3095 31.1303 16.9556 31.0418 16.6606 30.8944C15.4218 30.275 14.065 29.9505 12.6787 29.921C11.4694 29.8915 10.4961 28.8887 10.4961 27.6794C10.5256 26.4701 11.6759 25.4672 12.7377 25.4967C14.7729 25.5262 16.8081 26.0276 18.6073 26.942C19.6986 27.4729 20.1411 28.8297 19.6101 29.921C19.2267 30.6879 18.4598 31.1303 17.634 31.1303Z" fill="white"/>
<path d="M42.9751 22.0159C42.1492 22.0159 41.3823 21.5734 40.9989 20.7771C40.4385 19.6857 40.9104 18.3584 42.0017 17.798C43.8304 16.8836 45.8656 16.3822 47.8713 16.3527C49.0511 16.3232 50.113 17.2966 50.113 18.5354C50.1424 19.7447 49.1691 20.7771 47.9303 20.7771C46.5735 20.8066 45.1872 21.131 43.9484 21.7504C43.624 21.9274 43.2995 22.0159 42.9751 22.0159Z" fill="white"/>
<path d="M57.1306 25.879C56.5112 25.879 55.8623 25.6135 55.4199 25.0826C53.3847 22.6345 50.6121 21.1302 47.4561 20.7173C46.4828 20.5993 45.7159 19.8619 45.5684 18.8886C44.949 15.2312 43.6512 12.1637 41.7045 9.74504C41.3801 9.3616 41.2031 8.86018 41.2031 8.35876C41.2031 7.76886 41.4391 7.17895 41.852 6.76602C44.2116 4.3769 47.3381 3.0791 50.7006 3.0791C57.6025 3.0791 63.2361 8.71271 63.2361 15.6146C63.2361 19.449 61.5254 23.0179 58.5169 25.407C58.1039 25.7315 57.632 25.879 57.1306 25.879ZM49.6388 16.6174C52.4703 17.2368 55.0364 18.5641 57.1601 20.5108C58.2219 19.1245 58.8118 17.4138 58.8118 15.6146C58.8118 11.1313 55.1839 7.5034 50.7006 7.5034C49.1669 7.5034 47.6921 7.91633 46.4238 8.7422C47.9281 11.0133 48.9899 13.6679 49.6388 16.6174Z" fill="white"/>
</svg>
