<svg width="39" height="47" viewBox="0 0 39 47" fill="none" xmlns="http://www.w3.org/2000/svg">
<path d="M29.2841 5.46713V2.0085C29.2841 1.09951 28.5623 0.345703 27.6919 0.345703C26.8215 0.345703 26.0997 1.09951 26.0997 2.0085V5.33411H12.3004V2.0085C12.3004 1.09951 11.5786 0.345703 10.7082 0.345703C9.83778 0.345703 9.11597 1.09951 9.11597 2.0085V5.46713C3.38394 6.0214 0.602852 9.59088 0.178258 14.8897C0.135799 15.5326 0.645312 16.0647 1.23974 16.0647H37.1604C37.776 16.0647 38.2855 15.5104 38.2218 14.8897C37.7972 9.59088 35.0162 6.0214 29.2841 5.46713Z" fill="#292D32"/>
<path d="M36.1843 19.3901H2.21672C1.04909 19.3901 0.09375 20.3877 0.09375 21.6071V35.2643C0.09375 41.9155 3.27821 46.3496 10.7086 46.3496H27.6924C35.1228 46.3496 38.3072 41.9155 38.3072 35.2643V21.6071C38.3072 20.3877 37.3519 19.3901 36.1843 19.3901ZM13.2774 37.9469C13.1713 38.0356 13.0651 38.1464 12.959 38.213C12.8316 38.3016 12.7042 38.3681 12.5768 38.4125C12.4494 38.479 12.3221 38.5233 12.1947 38.5455C12.0461 38.5677 11.9187 38.5899 11.7701 38.5899C11.4941 38.5899 11.2181 38.5233 10.9634 38.4125C10.6874 38.3016 10.4751 38.1464 10.2628 37.9469C9.88065 37.5257 9.64712 36.9492 9.64712 36.3728C9.64712 35.7964 9.88065 35.2199 10.2628 34.7987C10.4751 34.5991 10.6874 34.4439 10.9634 34.3331C11.3455 34.1557 11.7701 34.1114 12.1947 34.2001C12.3221 34.2222 12.4494 34.2666 12.5768 34.3331C12.7042 34.3774 12.8316 34.4439 12.959 34.5326C13.0651 34.6213 13.1713 34.71 13.2774 34.7987C13.6595 35.2199 13.8931 35.7964 13.8931 36.3728C13.8931 36.9492 13.6595 37.5257 13.2774 37.9469ZM13.2774 30.1872C12.874 30.5862 12.3221 30.8301 11.7701 30.8301C11.2181 30.8301 10.6661 30.5862 10.2628 30.1872C9.88065 29.7659 9.64712 29.1895 9.64712 28.6131C9.64712 28.0366 9.88065 27.4602 10.2628 27.0389C10.8572 26.4182 11.7913 26.2186 12.5768 26.5733C12.8528 26.6842 13.0863 26.8394 13.2774 27.0389C13.6595 27.4602 13.8931 28.0366 13.8931 28.6131C13.8931 29.1895 13.6595 29.7659 13.2774 30.1872ZM20.7078 37.9469C20.3044 38.346 19.7525 38.5899 19.2005 38.5899C18.6485 38.5899 18.0965 38.346 17.6932 37.9469C17.311 37.5257 17.0775 36.9492 17.0775 36.3728C17.0775 35.7964 17.311 35.2199 17.6932 34.7987C18.4787 33.9784 19.9223 33.9784 20.7078 34.7987C21.0899 35.2199 21.3235 35.7964 21.3235 36.3728C21.3235 36.9492 21.0899 37.5257 20.7078 37.9469ZM20.7078 30.1872C20.6017 30.2759 20.4955 30.3645 20.3894 30.4532C20.262 30.5419 20.1346 30.6084 20.0072 30.6528C19.8798 30.7193 19.7525 30.7636 19.6251 30.7858C19.4765 30.8079 19.3491 30.8301 19.2005 30.8301C18.6485 30.8301 18.0965 30.5862 17.6932 30.1872C17.311 29.7659 17.0775 29.1895 17.0775 28.6131C17.0775 28.0366 17.311 27.4602 17.6932 27.0389C17.8842 26.8394 18.1178 26.6842 18.3938 26.5733C19.1793 26.2186 20.1134 26.4182 20.7078 27.0389C21.0899 27.4602 21.3235 28.0366 21.3235 28.6131C21.3235 29.1895 21.0899 29.7659 20.7078 30.1872ZM28.1382 37.9469C27.7348 38.346 27.1829 38.5899 26.6309 38.5899C26.0789 38.5899 25.5269 38.346 25.1236 37.9469C24.7414 37.5257 24.5079 36.9492 24.5079 36.3728C24.5079 35.7964 24.7414 35.2199 25.1236 34.7987C25.9091 33.9784 27.3527 33.9784 28.1382 34.7987C28.5203 35.2199 28.7539 35.7964 28.7539 36.3728C28.7539 36.9492 28.5203 37.5257 28.1382 37.9469ZM28.1382 30.1872C28.0321 30.2759 27.9259 30.3645 27.8198 30.4532C27.6924 30.5419 27.565 30.6084 27.4376 30.6528C27.3102 30.7193 27.1829 30.7636 27.0555 30.7858C26.9069 30.8079 26.7583 30.8301 26.6309 30.8301C26.0789 30.8301 25.5269 30.5862 25.1236 30.1872C24.7414 29.7659 24.5079 29.1895 24.5079 28.6131C24.5079 28.0366 24.7414 27.4602 25.1236 27.0389C25.3359 26.8394 25.5482 26.6842 25.8242 26.5733C26.2063 26.396 26.6309 26.3516 27.0555 26.4403C27.1829 26.4625 27.3102 26.5068 27.4376 26.5733C27.565 26.6177 27.6924 26.6842 27.8198 26.7729L28.1382 27.0389C28.5203 27.4602 28.7539 28.0366 28.7539 28.6131C28.7539 29.1895 28.5203 29.7659 28.1382 30.1872Z" fill="#292D32"/>
</svg>
