<svg width="1058" height="125" viewBox="0 0 1058 125" fill="none" xmlns="http://www.w3.org/2000/svg">
<g filter="url(#filter0_d_32_125)">
<rect x="4" width="1050" height="117" fill="white"/>
</g>
<path d="M964.916 106.255C964.602 106.255 964.304 106.124 964.084 105.894C963.785 105.583 963.66 105.124 963.77 104.698L965.749 96.978C964.43 94.4212 963.738 91.5365 963.738 88.6191C963.738 78.8999 971.309 71 980.624 71C989.938 71 997.509 78.8999 997.509 88.6191C997.509 98.3383 989.938 106.238 980.624 106.238C977.781 106.238 975.001 105.501 972.519 104.091L965.231 106.206C965.121 106.238 965.026 106.255 964.916 106.255ZM972.676 101.551C972.88 101.551 973.084 101.616 973.273 101.715C975.487 103.075 978.032 103.796 980.624 103.796C988.634 103.796 995.153 96.9944 995.153 88.6355C995.153 80.2767 988.634 73.4749 980.624 73.4749C972.613 73.4749 966.094 80.2767 966.094 88.6355C966.094 91.3071 966.77 93.9131 968.042 96.2076C968.199 96.4863 968.246 96.8305 968.168 97.1419L966.597 103.272L972.377 101.6C972.472 101.567 972.582 101.551 972.676 101.551Z" fill="black"/>
<path d="M984.929 98.0756C983.955 98.0756 982.95 97.8461 981.898 97.3708C980.908 96.9283 979.919 96.3382 978.961 95.6007C978.018 94.8795 977.091 94.06 976.243 93.175C975.395 92.2735 974.61 91.3229 973.919 90.3395C973.212 89.307 972.646 88.2908 972.238 87.291C971.798 86.2093 971.578 85.1439 971.578 84.1277C971.578 83.4066 971.704 82.7182 971.939 82.079C972.191 81.407 972.599 80.8006 973.133 80.2761C974.138 79.2435 975.584 78.8666 976.73 79.4402C977.123 79.6205 977.453 79.9155 977.704 80.3089L979.526 82.9804C979.714 83.2427 979.856 83.5213 979.966 83.7999C980.092 84.1277 980.17 84.4556 980.17 84.767C980.17 85.1931 980.06 85.6192 979.84 85.9962C979.699 86.242 979.495 86.5371 979.228 86.8157L979.023 87.0451C979.118 87.1763 979.228 87.3402 979.4 87.5368C979.73 87.9302 980.091 88.3563 980.484 88.7661C980.877 89.1594 981.27 89.5528 981.662 89.897C981.851 90.0609 982.008 90.192 982.134 90.274L982.353 90.0445C982.636 89.7495 982.919 89.52 983.202 89.3725C983.72 89.0283 984.521 88.9464 985.228 89.2578C985.479 89.3561 985.73 89.5036 985.997 89.7003L988.621 91.6343C988.982 91.8966 989.265 92.2571 989.453 92.6669C989.61 93.0766 989.673 93.4372 989.673 93.8142C989.673 94.3059 989.563 94.7812 989.359 95.2401C989.155 95.6662 988.919 96.0432 988.636 96.3874C988.134 96.9611 987.553 97.3872 986.924 97.6658C986.296 97.9444 985.62 98.0756 984.929 98.0756ZM975.583 81.6528C975.489 81.6528 975.175 81.6528 974.782 82.0626C974.484 82.3576 974.28 82.6691 974.138 83.0132C973.997 83.3574 973.934 83.7508 973.934 84.1441C973.934 84.8325 974.091 85.5701 974.405 86.3568C974.735 87.1763 975.222 88.0449 975.819 88.9136C976.432 89.7823 977.123 90.6509 977.893 91.454C978.662 92.2408 979.479 92.9783 980.327 93.6339C981.144 94.2567 981.976 94.7484 982.809 95.1254C984.003 95.6662 985.102 95.7974 985.997 95.404C986.312 95.2729 986.594 95.0434 986.877 94.7484C987.018 94.5845 987.129 94.4206 987.223 94.2075C987.27 94.0928 987.301 93.9617 987.301 93.847C987.301 93.8142 987.301 93.765 987.254 93.6667L984.631 91.7654C984.521 91.6835 984.411 91.6179 984.317 91.5852C984.254 91.6179 984.16 91.6671 983.987 91.8474L983.39 92.4702C982.935 92.9455 982.212 93.0766 981.631 92.8636L981.348 92.7325C980.987 92.5358 980.578 92.2408 980.123 91.831C979.683 91.4376 979.259 91.0279 978.804 90.569C978.364 90.0937 977.971 89.6511 977.594 89.1922C977.186 88.6841 976.903 88.2744 976.714 87.9302L976.542 87.5041C976.495 87.3402 976.479 87.1599 976.479 86.996C976.479 86.5371 976.636 86.1273 976.934 85.7995L977.531 85.1603C977.704 84.98 977.767 84.8817 977.798 84.8161C977.751 84.7014 977.688 84.603 977.61 84.4883L975.772 81.784L975.583 81.6528Z" fill="black"/>
<path d="M941.265 83.865V88.9757H945.656C945.994 88.9757 946.163 89.3282 946.163 89.6807L945.487 93.0291C945.487 93.2053 945.15 93.3815 944.981 93.3815H941.265V106.247H936.198V93.5578H933.327C932.989 93.5578 932.82 93.3815 932.82 93.0291V89.6807C932.82 89.3282 932.989 89.152 933.327 89.152H936.198V83.3363C936.198 80.3403 938.394 78.0493 941.265 78.0493H945.825C946.163 78.0493 946.332 78.2255 946.332 78.578V82.8076C946.332 83.1601 946.163 83.3363 945.825 83.3363H941.772C941.434 83.3363 941.265 83.5125 941.265 83.865Z" stroke="#17191C" stroke-width="4.743" stroke-miterlimit="10" stroke-linecap="round"/>
<path d="M942.956 106.246H932.823C924.378 106.246 921 102.722 921 93.9102V83.3363C921 74.5246 924.378 71 932.823 71H942.956C951.401 71 954.779 74.5246 954.779 83.3363V93.9102C954.779 102.722 951.401 106.246 942.956 106.246Z" stroke="#17191C" stroke-width="4.743" stroke-linecap="round" stroke-linejoin="round"/>
<path d="M1018.28 106.246H1028.42C1036.86 106.246 1040.24 102.722 1040.24 93.9102V83.3363C1040.24 74.5246 1036.86 71 1028.42 71H1018.28C1009.84 71 1006.46 74.5246 1006.46 83.3363V93.9102C1006.46 102.722 1009.84 106.246 1018.28 106.246Z" stroke="#292D32" stroke-width="4.743" stroke-linecap="round" stroke-linejoin="round"/>
<path d="M1023.35 94.7914C1026.62 94.7914 1029.26 92.0298 1029.26 88.6232C1029.26 85.2166 1026.62 82.4551 1023.35 82.4551C1020.09 82.4551 1017.44 85.2166 1017.44 88.6232C1017.44 92.0298 1020.09 94.7914 1023.35 94.7914Z" stroke="#292D32" stroke-width="4.743" stroke-linecap="round" stroke-linejoin="round"/>
<path d="M1032.87 79.8115H1032.89" stroke="#292D32" stroke-width="6.324" stroke-linecap="round" stroke-linejoin="round"/>
<defs>
<filter id="filter0_d_32_125" x="0" y="0" width="1058" height="125" filterUnits="userSpaceOnUse" color-interpolation-filters="sRGB">
<feFlood flood-opacity="0" result="BackgroundImageFix"/>
<feColorMatrix in="SourceAlpha" type="matrix" values="0 0 0 0 0 0 0 0 0 0 0 0 0 0 0 0 0 0 127 0" result="hardAlpha"/>
<feOffset dy="4"/>
<feGaussianBlur stdDeviation="2"/>
<feComposite in2="hardAlpha" operator="out"/>
<feColorMatrix type="matrix" values="0 0 0 0 0 0 0 0 0 0 0 0 0 0 0 0 0 0 0.25 0"/>
<feBlend mode="normal" in2="BackgroundImageFix" result="effect1_dropShadow_32_125"/>
<feBlend mode="normal" in="SourceGraphic" in2="effect1_dropShadow_32_125" result="shape"/>
</filter>
</defs>
</svg>
