<svg width="1050" height="330" viewBox="0 0 1050 330" fill="none" xmlns="http://www.w3.org/2000/svg">
<rect width="1050" height="328.168" fill="#FFFEFE"/>
<rect width="1050" height="328.168" fill="url(#paint0_linear_32_11)"/>
<path d="M497.165 327.953C496.204 326.682 473.568 296.735 469.906 288.985L470.82 288.712C474.45 296.397 497.766 327.243 498.001 327.554L497.165 327.953Z" fill="#88983D"/>
<path d="M478.27 272.537C477.283 274.475 476.528 276.483 476.016 278.533C475.492 280.542 475.108 282.571 474.864 284.613C474.614 286.655 474.508 288.705 474.547 290.756C474.562 292.847 474.828 294.932 475.342 296.983C476.334 295.046 477.09 293.038 477.601 290.987C478.126 288.979 478.509 286.949 478.748 284.906C478.993 282.865 479.098 280.814 479.06 278.763C479.044 276.673 478.779 274.588 478.27 272.537Z" fill="#88983D"/>
<path d="M486.874 281.877C485.672 283.683 484.693 285.576 483.949 287.531C483.2 289.442 482.586 291.385 482.112 293.351C481.631 295.316 481.293 297.301 481.098 299.297C480.875 301.331 480.903 303.379 481.181 305.409C482.388 303.605 483.369 301.712 484.111 299.756C484.861 297.845 485.473 295.902 485.943 293.935C486.42 291.97 486.756 289.985 486.952 287.989C487.173 285.955 487.147 283.908 486.874 281.877Z" fill="#88983D"/>
<path d="M491.616 292.751C490.558 294.43 489.724 296.191 489.127 298.007C488.524 299.776 488.059 301.572 487.734 303.386C487.403 305.2 487.214 307.028 487.17 308.86C487.102 310.736 487.284 312.613 487.713 314.459C488.776 312.782 489.612 311.021 490.208 309.204C490.812 307.436 491.275 305.639 491.596 303.824C491.923 302.01 492.109 300.182 492.154 298.35C492.221 296.474 492.041 294.598 491.616 292.751Z" fill="#88983D"/>
<path d="M497.582 303.605C496.519 305.011 495.672 306.512 495.057 308.077C494.443 309.589 493.964 311.134 493.625 312.699C493.279 314.264 493.076 315.847 493.017 317.434C492.934 319.073 493.099 320.714 493.511 322.321C494.578 320.916 495.427 319.415 496.041 317.849C496.656 316.337 497.133 314.792 497.469 313.226C497.81 311.661 498.011 310.078 498.071 308.49C498.153 306.852 497.989 305.212 497.582 303.605Z" fill="#88983D"/>
<path d="M502.857 310.389C501.773 311.608 500.878 312.926 500.192 314.316C499.52 315.642 498.96 317.003 498.517 318.389C498.078 319.765 497.74 321.16 497.505 322.567C497.395 323.276 497.295 323.981 497.228 324.7C497.194 325.432 497.095 326.162 496.934 326.884C497.159 326.788 497.375 326.679 497.581 326.559L498.107 326.141C498.443 325.855 498.75 325.55 499.027 325.227C499.561 324.606 500.034 323.952 500.442 323.273C501.233 321.953 501.855 320.572 502.298 319.153C502.749 317.746 503.041 316.31 503.171 314.862C503.329 313.367 503.223 311.861 502.857 310.389Z" fill="#88983D"/>
<path d="M473.148 293.643C471.378 292.102 469.386 290.73 467.213 289.557C465.119 288.403 462.927 287.365 460.652 286.452C458.38 285.533 456.03 284.743 453.618 284.088C451.14 283.391 448.568 282.93 445.953 282.714C447.72 284.259 449.711 285.632 451.885 286.805C453.978 287.96 456.172 288.996 458.449 289.906C460.723 290.82 463.075 291.609 465.486 292.265C467.964 292.96 470.535 293.423 473.148 293.643Z" fill="#88983D"/>
<path d="M478.983 302.289C476.719 300.819 474.265 299.543 471.662 298.484C469.135 297.431 466.527 296.504 463.855 295.708C461.185 294.906 458.454 294.239 455.679 293.711C452.841 293.146 449.936 292.824 447.012 292.751C449.273 294.225 451.726 295.502 454.33 296.561C456.857 297.614 459.465 298.54 462.14 299.332C464.811 300.13 467.543 300.795 470.318 301.325C473.156 301.888 476.06 302.211 478.983 302.289Z" fill="#88983D"/>
<path d="M485.844 311.897C483.828 310.477 481.614 309.245 479.245 308.224C476.956 307.215 474.583 306.33 472.142 305.575C469.705 304.814 467.205 304.188 464.659 303.7C462.045 303.175 459.364 302.893 456.668 302.858C458.681 304.283 460.894 305.517 463.265 306.536C465.554 307.547 467.928 308.43 470.37 309.181C472.809 309.938 475.31 310.563 477.856 311.051C480.469 311.574 483.149 311.858 485.844 311.897Z" fill="#88983D"/>
<path d="M491.269 319.294C489.513 318.086 487.565 317.067 485.473 316.263C483.473 315.473 481.397 314.81 479.264 314.281C477.133 313.746 474.952 313.349 472.741 313.092C470.445 312.805 468.111 312.761 465.801 312.963C467.554 314.174 469.502 315.195 471.595 315.998C473.595 316.789 475.672 317.45 477.807 317.975C479.939 318.506 482.12 318.902 484.331 319.159C486.626 319.445 488.959 319.491 491.269 319.294Z" fill="#88983D"/>
<path d="M495.552 325.93C493.621 324.459 491.484 323.17 489.181 322.087C486.958 321.019 484.646 320.072 482.26 319.253C479.878 318.428 477.426 317.736 474.923 317.181C472.353 316.588 469.705 316.234 467.031 316.128C468.958 317.603 471.095 318.894 473.399 319.976C475.622 321.045 477.935 321.991 480.323 322.805C482.707 323.626 485.16 324.316 487.662 324.872C490.232 325.464 492.88 325.819 495.552 325.93Z" fill="#88983D"/>
<path d="M471.26 289.963C471.616 287.898 471.552 285.801 471.07 283.752C470.645 281.82 469.977 279.927 469.076 278.101C468.183 276.273 467.058 274.522 465.716 272.875C464.318 271.109 462.568 269.536 460.535 268.215C460.171 270.281 460.232 272.379 460.716 274.429C461.139 276.361 461.81 278.254 462.718 280.077C463.618 281.904 464.746 283.653 466.087 285.301C467.485 287.065 469.232 288.639 471.26 289.963Z" fill="#88983D"/>
<path d="M500.754 329.217C500.743 328.701 499.559 277.424 487.133 261.805L487.957 261.391C500.529 277.194 501.686 327.089 501.73 329.205L500.754 329.217Z" fill="#F9CB30"/>
<path d="M491.579 268.519C491.193 266.204 491.095 263.864 491.287 261.534C491.449 259.264 491.767 257.002 492.238 254.759C492.693 252.525 493.313 250.313 494.042 248.119C494.77 245.911 495.689 243.786 496.671 241.523C496.949 242.085 497.16 242.667 497.301 243.26C497.458 243.842 497.573 244.431 497.645 245.024C497.797 246.188 497.863 247.357 497.843 248.527C497.8 250.828 497.534 253.123 497.049 255.392C496.576 257.654 495.907 259.887 495.048 262.076C494.198 264.32 493.034 266.481 491.579 268.519Z" fill="#F9CB30"/>
<path d="M476.121 236.923C478.282 238.577 480.135 240.467 481.624 242.536C483.075 244.499 484.309 246.558 485.313 248.689C486.325 250.818 487.1 253.013 487.628 255.25C488.218 257.588 488.38 259.981 488.111 262.355C485.944 260.705 484.087 258.815 482.599 256.744C481.147 254.782 479.915 252.723 478.919 250.589C477.913 248.458 477.141 246.262 476.612 244.026C476.024 241.689 475.859 239.297 476.121 236.923Z" fill="#F9CB30"/>
<path d="M465.762 249.639C468.326 251.274 470.747 253.046 473.009 254.941C475.249 256.784 477.387 258.668 479.478 260.563L485.691 266.224C486.734 267.151 487.787 268.064 488.9 268.929C489.999 269.846 491.28 270.614 492.691 271.203C491.83 271.322 490.948 271.305 490.096 271.151C489.237 271.015 488.399 270.805 487.596 270.526C486.025 269.978 484.533 269.299 483.144 268.5C480.447 266.933 477.986 265.125 475.809 263.113C473.643 261.141 471.693 259.027 469.98 256.792C468.217 254.551 466.801 252.149 465.762 249.639Z" fill="#F9CB30"/>
<path d="M465.762 262.355C468.922 263.608 471.937 265.08 474.771 266.754C477.576 268.383 480.274 270.123 482.855 271.97C485.441 273.812 487.906 275.759 490.238 277.804C492.632 279.866 494.79 282.094 496.685 284.461C493.522 283.213 490.505 281.742 487.671 280.066C484.866 278.439 482.169 276.697 479.592 274.847C477.009 273.002 474.546 271.054 472.214 269.009C469.82 266.947 467.661 264.72 465.762 262.355Z" fill="#F9CB30"/>
<path d="M466.82 272.333C470.004 273.509 473.051 274.907 475.923 276.511C478.764 278.07 481.502 279.744 484.127 281.526C486.757 283.303 489.268 285.187 491.65 287.172C494.096 289.174 496.31 291.346 498.266 293.662C495.078 292.49 492.03 291.093 489.158 289.487C486.317 287.929 483.58 286.254 480.959 284.469C478.332 282.689 475.823 280.803 473.44 278.818C470.996 276.816 468.78 274.646 466.82 272.333Z" fill="#F9CB30"/>
<path d="M467.523 282.998C470.692 283.943 473.744 285.119 476.641 286.509C479.501 287.855 482.268 289.321 484.931 290.901C487.599 292.475 490.157 294.164 492.594 295.959C495.097 297.768 497.383 299.759 499.421 301.906C496.25 300.964 493.196 299.79 490.299 298.399C487.439 297.053 484.673 295.586 482.013 294.003C479.349 292.424 476.792 290.735 474.355 288.94C471.853 287.13 469.566 285.141 467.523 282.998Z" fill="#F9CB30"/>
<path d="M466.82 290.735C470.135 291.794 473.327 293.08 476.36 294.58C479.359 296.036 482.264 297.612 485.063 299.3C487.867 300.984 490.561 302.78 493.133 304.683C495.769 306.599 498.186 308.696 500.357 310.949C497.039 309.895 493.846 308.609 490.813 307.108C487.814 305.653 484.91 304.076 482.114 302.384C479.313 300.697 476.621 298.899 474.049 296.997C471.414 295.081 468.995 292.985 466.82 290.735Z" fill="#F9CB30"/>
<path d="M464.352 297.984C467.803 299.258 471.135 300.726 474.323 302.377C477.489 303.986 480.552 305.687 483.539 307.462C486.534 309.227 489.446 311.067 492.306 312.969C495.197 314.853 497.927 316.817 500.917 318.761C498.997 318.51 497.122 318.076 495.333 317.467C493.562 316.88 491.832 316.218 490.148 315.486C486.838 314.016 483.654 312.371 480.62 310.564C477.597 308.764 474.706 306.828 471.964 304.765C469.17 302.695 466.621 300.425 464.352 297.984Z" fill="#F9CB30"/>
<path d="M461.367 305.512C465.097 306.663 468.716 308.028 472.196 309.597C475.654 311.127 479.01 312.769 482.288 314.497C485.568 316.225 488.768 318.042 491.889 319.948C493.449 320.903 494.995 321.876 496.525 322.866C498.005 323.908 499.578 324.864 501.23 325.727C500.194 325.727 499.165 325.587 498.188 325.312C497.208 325.081 496.256 324.801 495.315 324.509C493.437 323.918 491.623 323.241 489.844 322.524C486.312 321.08 482.888 319.476 479.587 317.72C476.288 315.977 473.101 314.103 470.041 312.104C466.925 310.1 464.024 307.896 461.367 305.512Z" fill="#F9CB30"/>
<path d="M494.605 277.375C494.764 274.86 495.233 272.363 496.005 269.92C496.734 267.522 497.635 265.159 498.704 262.842C499.765 260.524 500.995 258.256 502.387 256.05C503.782 253.787 505.455 251.64 507.383 249.639C507.23 252.155 506.763 254.653 505.99 257.096C505.261 259.494 504.358 261.857 503.284 264.172C502.218 266.489 500.986 268.757 499.594 270.962C498.199 273.224 496.528 275.372 494.605 277.375Z" fill="#F9CB30"/>
<path d="M496.684 286.081C497.282 283.578 498.185 281.128 499.379 278.765C500.523 276.44 501.832 274.169 503.298 271.961C504.758 269.751 506.376 267.609 508.145 265.545C509.925 263.426 511.962 261.45 514.228 259.646C513.635 262.15 512.734 264.601 511.539 266.965C510.395 269.289 509.084 271.56 507.613 273.766C506.149 275.974 504.529 278.116 502.761 280.179C500.98 282.298 498.945 284.274 496.684 286.081Z" fill="#F9CB30"/>
<path d="M498.258 294.499C499.284 291.959 500.605 289.5 502.203 287.154C503.747 284.84 505.447 282.594 507.295 280.425C509.137 278.252 511.126 276.161 513.255 274.161C515.401 272.108 517.784 270.219 520.373 268.519C519.352 271.06 518.033 273.52 516.433 275.866C514.89 278.18 513.188 280.426 511.336 282.592C509.49 284.763 507.499 286.853 505.37 288.853C503.224 290.905 500.843 292.795 498.258 294.499Z" fill="#F9CB30"/>
<path d="M499.418 303.786C501.027 301.041 502.916 298.405 505.066 295.904C507.166 293.416 509.406 291.021 511.787 288.716C514.159 286.407 516.67 284.187 519.317 282.056C521.976 279.884 524.857 277.89 527.93 276.097C526.327 278.845 524.44 281.482 522.287 283.983C520.188 286.47 517.946 288.864 515.562 291.167C513.184 293.473 510.672 295.692 508.026 297.824C505.366 299.994 502.487 301.988 499.418 303.786Z" fill="#F9CB30"/>
<path d="M500.355 313.417C502.328 310.807 504.565 308.329 507.044 306.008C509.471 303.695 512.026 301.485 514.709 299.378C517.384 297.265 520.184 295.251 523.11 293.338C526.052 291.385 529.191 289.629 532.497 288.086C530.529 290.699 528.294 293.178 525.813 295.499C523.386 297.811 520.83 300.02 518.144 302.125C515.464 304.234 512.661 306.246 509.738 308.161C506.795 310.112 503.657 311.87 500.355 313.417Z" fill="#F9CB30"/>
<path d="M500.922 319.592C503.11 317.341 505.542 315.245 508.189 313.328C510.774 311.426 513.478 309.628 516.291 307.941C519.098 306.249 522.013 304.672 525.024 303.217C528.068 301.716 531.272 300.432 534.6 299.378C532.416 301.633 529.985 303.73 527.337 305.646C524.753 307.549 522.047 309.346 519.232 311.029C516.421 312.718 513.504 314.293 510.494 315.749C507.45 317.248 504.247 318.534 500.922 319.592Z" fill="#F9CB30"/>
<path d="M501.238 324.75C503.864 322.695 506.704 320.821 509.728 319.147C512.697 317.471 515.756 315.921 518.905 314.497C522.05 313.065 525.282 311.756 528.603 310.568C531.954 309.346 535.43 308.354 538.994 307.603C536.373 309.662 533.533 311.538 530.507 313.211C527.539 314.887 524.479 316.435 521.327 317.857C518.179 319.284 514.946 320.592 511.626 321.781C508.276 323.002 504.8 323.995 501.238 324.75Z" fill="#F9CB30"/>
<path d="M500.992 328.096C504.142 326.371 507.464 324.852 510.925 323.554C514.333 322.248 517.808 321.085 521.339 320.043C524.87 319 528.462 318.089 532.117 317.311C535.806 316.502 539.574 315.936 543.381 315.619C540.234 317.349 536.913 318.87 533.451 320.166C530.042 321.472 526.57 322.641 523.034 323.673C519.501 324.71 515.911 325.626 512.254 326.4C508.564 327.207 504.798 327.774 500.992 328.096Z" fill="#F9CB30"/>
<path d="M502.75 327.953L501.914 327.554C502.149 327.243 525.465 296.397 529.095 288.712L530.009 288.985C526.347 296.735 503.712 326.682 502.75 327.953Z" fill="#935B50"/>
<path d="M521.649 272.537C522.636 274.475 523.391 276.483 523.903 278.533C524.427 280.542 524.811 282.571 525.055 284.613C525.305 286.655 525.411 288.705 525.372 290.756C525.357 292.847 525.091 294.932 524.577 296.983C523.585 295.046 522.829 293.038 522.318 290.987C521.793 288.979 521.41 286.949 521.171 284.906C520.926 282.865 520.821 280.814 520.859 278.763C520.875 276.673 521.14 274.588 521.649 272.537Z" fill="#935B50"/>
<path d="M513.043 281.877C514.245 283.683 515.224 285.576 515.968 287.531C516.717 289.442 517.331 291.385 517.805 293.351C518.286 295.316 518.624 297.301 518.819 299.297C519.042 301.331 519.014 303.379 518.736 305.409C517.529 303.605 516.548 301.712 515.806 299.756C515.056 297.845 514.444 295.902 513.974 293.935C513.497 291.97 513.16 289.985 512.965 287.989C512.743 285.955 512.77 283.908 513.043 281.877Z" fill="#935B50"/>
<path d="M508.301 292.751C509.36 294.43 510.194 296.191 510.791 298.007C511.394 299.776 511.859 301.572 512.184 303.386C512.515 305.2 512.703 307.028 512.747 308.86C512.816 310.736 512.634 312.613 512.204 314.459C511.142 312.782 510.305 311.021 509.71 309.204C509.106 307.436 508.643 305.639 508.322 303.824C507.995 302.01 507.808 300.182 507.764 298.35C507.696 296.474 507.877 294.598 508.301 292.751Z" fill="#935B50"/>
<path d="M502.334 303.605C503.396 305.011 504.244 306.512 504.858 308.077C505.473 309.589 505.952 311.134 506.291 312.699C506.637 314.264 506.84 315.847 506.899 317.434C506.982 319.073 506.816 320.714 506.405 322.321C505.338 320.916 504.488 319.415 503.875 317.849C503.26 316.337 502.782 314.792 502.447 313.226C502.106 311.661 501.904 310.078 501.845 308.49C501.763 306.852 501.927 305.212 502.334 303.605Z" fill="#935B50"/>
<path d="M497.065 310.389C498.149 311.608 499.043 312.926 499.73 314.316C500.402 315.642 500.962 317.003 501.405 318.389C501.844 319.765 502.182 321.16 502.417 322.567C502.526 323.276 502.627 323.981 502.694 324.7C502.728 325.432 502.826 326.162 502.988 326.884C502.763 326.788 502.546 326.679 502.34 326.559L501.814 326.141C501.479 325.855 501.171 325.55 500.894 325.227C500.36 324.606 499.888 323.952 499.48 323.273C498.689 321.953 498.067 320.572 497.624 319.153C497.173 317.746 496.88 316.31 496.75 314.862C496.593 313.367 496.699 311.861 497.065 310.389Z" fill="#935B50"/>
<path d="M526.766 293.643C528.536 292.102 530.528 290.73 532.701 289.557C534.795 288.403 536.987 287.365 539.262 286.452C541.533 285.533 543.884 284.743 546.296 284.088C548.773 283.391 551.346 282.93 553.961 282.714C552.194 284.259 550.203 285.632 548.028 286.805C545.935 287.96 543.742 288.996 541.465 289.906C539.191 290.82 536.839 291.609 534.428 292.265C531.95 292.96 529.379 293.423 526.766 293.643Z" fill="#935B50"/>
<path d="M520.938 302.289C523.202 300.819 525.656 299.543 528.258 298.484C530.786 297.431 533.394 296.504 536.066 295.708C538.736 294.906 541.466 294.239 544.242 293.711C547.08 293.146 549.985 292.824 552.909 292.751C550.648 294.225 548.195 295.502 545.591 296.561C543.064 297.614 540.455 298.54 537.781 299.332C535.11 300.13 532.378 300.795 529.603 301.324C526.765 301.888 523.861 302.211 520.938 302.289Z" fill="#935B50"/>
<path d="M514.074 311.897C516.09 310.477 518.304 309.245 520.673 308.224C522.963 307.215 525.336 306.33 527.776 305.575C530.213 304.814 532.714 304.188 535.259 303.7C537.873 303.175 540.555 302.893 543.25 302.858C541.238 304.283 539.024 305.517 536.654 306.536C534.365 307.547 531.991 308.43 529.549 309.181C527.109 309.938 524.608 310.563 522.063 311.051C519.449 311.574 516.769 311.858 514.074 311.897Z" fill="#935B50"/>
<path d="M508.652 319.294C510.408 318.086 512.357 317.067 514.448 316.263C516.449 315.473 518.525 314.81 520.658 314.281C522.788 313.746 524.97 313.349 527.181 313.092C529.477 312.805 531.811 312.761 534.121 312.963C532.368 314.174 530.419 315.195 528.327 315.998C526.327 316.789 524.249 317.45 522.115 317.975C519.983 318.506 517.801 318.902 515.591 319.159C513.295 319.445 510.963 319.491 508.652 319.294Z" fill="#935B50"/>
<path d="M504.367 325.93C506.298 324.459 508.436 323.17 510.738 322.087C512.961 321.019 515.273 320.072 517.659 319.253C520.041 318.428 522.493 317.736 524.996 317.181C527.566 316.588 530.215 316.234 532.888 316.128C530.961 317.603 528.824 318.894 526.52 319.976C524.297 321.045 521.984 321.991 519.596 322.805C517.212 323.626 514.76 324.316 512.257 324.872C509.687 325.464 507.04 325.819 504.367 325.93Z" fill="#935B50"/>
<path d="M528.668 289.963C528.312 287.898 528.376 285.801 528.858 283.752C529.282 281.82 529.95 279.927 530.852 278.101C531.745 276.273 532.87 274.522 534.212 272.875C535.609 271.109 537.359 269.536 539.393 268.215C539.757 270.281 539.696 272.379 539.212 274.429C538.788 276.361 538.118 278.254 537.21 280.077C536.31 281.904 535.181 283.653 533.841 285.301C532.442 287.065 530.696 288.639 528.668 289.963Z" fill="#935B50"/>
<path d="M114.41 327.953L113.574 327.554C113.809 327.243 137.125 296.397 140.754 288.712L141.668 288.985C138.007 296.735 115.372 326.682 114.41 327.953Z" fill="#88983D"/>
<path d="M133.306 272.537C134.292 274.475 135.047 276.483 135.559 278.533C136.083 280.542 136.468 282.571 136.711 284.613C136.961 286.655 137.067 288.705 137.028 290.756C137.014 292.847 136.747 294.932 136.233 296.983C135.241 295.046 134.485 293.038 133.974 290.987C133.449 288.979 133.067 286.949 132.827 284.906C132.582 282.865 132.478 280.814 132.515 278.763C132.532 276.673 132.796 274.588 133.306 272.537Z" fill="#88983D"/>
<path d="M124.696 281.877C125.897 283.683 126.877 285.576 127.62 287.531C128.37 289.442 128.983 291.385 129.458 293.351C129.938 295.316 130.277 297.301 130.472 299.297C130.694 301.331 130.666 303.379 130.388 305.409C129.182 303.605 128.201 301.712 127.458 299.756C126.708 297.845 126.097 295.902 125.626 293.935C125.15 291.97 124.813 289.985 124.617 287.989C124.396 285.955 124.422 283.908 124.696 281.877Z" fill="#88983D"/>
<path d="M119.962 292.751C121.02 294.43 121.854 296.191 122.451 298.007C123.054 299.776 123.519 301.572 123.844 303.386C124.175 305.2 124.364 307.028 124.408 308.86C124.476 310.736 124.294 312.613 123.865 314.459C122.802 312.782 121.965 311.021 121.37 309.204C120.766 307.436 120.303 305.639 119.982 303.824C119.655 302.01 119.469 300.182 119.424 298.35C119.357 296.474 119.537 294.598 119.962 292.751Z" fill="#88983D"/>
<path d="M113.994 303.605C115.057 305.011 115.904 306.512 116.518 308.077C117.133 309.589 117.612 311.134 117.951 312.699C118.297 314.264 118.5 315.847 118.559 317.434C118.642 319.073 118.477 320.714 118.065 322.321C116.998 320.916 116.148 319.415 115.535 317.849C114.92 316.337 114.442 314.792 114.107 313.226C113.766 311.661 113.565 310.078 113.505 308.49C113.423 306.852 113.587 305.212 113.994 303.605Z" fill="#88983D"/>
<path d="M108.721 310.389C109.805 311.608 110.7 312.926 111.386 314.316C112.058 315.642 112.618 317.003 113.061 318.389C113.5 319.765 113.838 321.16 114.073 322.567C114.183 323.276 114.283 323.981 114.35 324.7C114.384 325.432 114.483 326.162 114.644 326.884C114.419 326.788 114.202 326.679 113.996 326.559L113.471 326.141C113.135 325.855 112.828 325.55 112.551 325.227C112.017 324.606 111.544 323.952 111.136 323.273C110.345 321.953 109.723 320.572 109.28 319.153C108.829 317.746 108.537 316.31 108.407 314.862C108.249 313.367 108.355 311.861 108.721 310.389Z" fill="#88983D"/>
<path d="M138.422 293.643C140.192 292.102 142.185 290.73 144.357 289.557C146.451 288.403 148.643 287.365 150.918 286.452C153.19 285.533 155.54 284.743 157.952 284.088C160.43 283.391 163.003 282.93 165.617 282.714C163.85 284.259 161.859 285.632 159.685 286.805C157.592 287.96 155.398 288.996 153.121 289.906C150.847 290.82 148.496 291.609 146.084 292.265C143.607 292.96 141.035 293.423 138.422 293.643Z" fill="#88983D"/>
<path d="M132.598 302.289C134.862 300.819 137.316 299.543 139.919 298.484C142.446 297.431 145.054 296.504 147.726 295.708C150.396 294.906 153.127 294.239 155.902 293.711C158.74 293.146 161.645 292.824 164.569 292.751C162.308 294.225 159.855 295.502 157.251 296.561C154.724 297.614 152.115 298.54 149.441 299.332C146.77 300.13 144.038 300.795 141.263 301.325C138.425 301.888 135.521 302.211 132.598 302.289Z" fill="#88983D"/>
<path d="M125.73 311.897C127.746 310.477 129.961 309.245 132.33 308.224C134.619 307.215 136.992 306.33 139.432 305.575C141.869 304.814 144.37 304.188 146.916 303.7C149.529 303.175 152.211 302.893 154.907 302.858C152.894 304.283 150.68 305.517 148.31 306.536C146.021 307.547 143.647 308.43 141.205 309.181C138.766 309.938 136.265 310.563 133.719 311.051C131.106 311.574 128.425 311.858 125.73 311.897Z" fill="#88983D"/>
<path d="M120.305 319.294C122.061 318.086 124.009 317.067 126.101 316.263C128.101 315.473 130.178 314.81 132.31 314.281C134.441 313.746 136.622 313.349 138.833 313.092C141.129 312.805 143.463 312.761 145.773 312.963C144.02 314.174 142.072 315.195 139.979 315.998C137.979 316.789 135.902 317.45 133.767 317.975C131.635 318.506 129.454 318.902 127.243 319.159C124.948 319.445 122.615 319.491 120.305 319.294Z" fill="#88983D"/>
<path d="M116.027 325.93C117.958 324.459 120.096 323.17 122.398 322.087C124.621 321.019 126.934 320.072 129.319 319.253C131.701 318.428 134.153 317.736 136.656 317.181C139.226 316.588 141.875 316.234 144.548 316.128C142.621 317.603 140.484 318.894 138.18 319.976C135.957 321.045 133.644 321.991 131.256 322.805C128.872 323.626 126.42 324.316 123.917 324.872C121.347 325.464 118.7 325.819 116.027 325.93Z" fill="#88983D"/>
<path d="M140.32 289.963C139.964 287.898 140.028 285.801 140.51 283.752C140.935 281.82 141.603 279.927 142.504 278.101C143.397 276.273 144.523 274.522 145.864 272.875C147.262 271.109 149.012 269.536 151.045 268.215C151.41 270.281 151.348 272.379 150.864 274.429C150.441 276.361 149.77 278.254 148.862 280.077C147.962 281.904 146.834 283.653 145.493 285.301C144.095 287.065 142.348 288.639 140.32 289.963Z" fill="#88983D"/>
<path d="M110.827 329.217L109.852 329.205C109.895 327.089 111.054 277.194 123.625 261.391L124.45 261.805C112.024 277.425 110.838 328.701 110.827 329.217Z" fill="#F9CB30"/>
<path d="M119.993 268.519C120.38 266.204 120.478 263.864 120.286 261.534C120.124 259.264 119.806 257.002 119.335 254.759C118.88 252.525 118.26 250.313 117.531 248.119C116.803 245.911 115.884 243.786 114.902 241.523C114.624 242.085 114.413 242.667 114.272 243.26C114.115 243.842 114 244.431 113.928 245.024C113.776 246.188 113.71 247.357 113.73 248.527C113.773 250.828 114.039 253.123 114.524 255.392C114.997 257.654 115.665 259.887 116.525 262.076C117.375 264.32 118.538 266.481 119.993 268.519Z" fill="#F9CB30"/>
<path d="M135.445 236.923C133.284 238.577 131.431 240.467 129.941 242.536C128.49 244.499 127.256 246.558 126.253 248.689C125.24 250.818 124.465 253.013 123.937 255.25C123.347 257.588 123.185 259.981 123.454 262.355C125.622 260.705 127.478 258.815 128.966 256.744C130.419 254.782 131.65 252.723 132.646 250.589C133.652 248.458 134.424 246.262 134.953 244.026C135.541 241.689 135.707 239.297 135.445 236.923Z" fill="#F9CB30"/>
<path d="M145.808 249.639C143.244 251.274 140.823 253.046 138.561 254.941C136.321 256.784 134.183 258.668 132.092 260.563L125.879 266.224C124.836 267.151 123.783 268.064 122.67 268.929C121.571 269.846 120.29 270.614 118.879 271.203C119.74 271.322 120.622 271.305 121.474 271.151C122.333 271.015 123.171 270.805 123.974 270.526C125.544 269.978 127.037 269.299 128.426 268.5C131.123 266.933 133.584 265.125 135.761 263.113C137.927 261.141 139.877 259.027 141.589 256.792C143.352 254.551 144.769 252.149 145.808 249.639Z" fill="#F9CB30"/>
<path d="M145.81 262.355C142.65 263.608 139.635 265.08 136.801 266.754C133.996 268.383 131.298 270.123 128.717 271.97C126.131 273.812 123.666 275.759 121.334 277.804C118.94 279.866 116.782 282.094 114.887 284.461C118.05 283.213 121.067 281.742 123.901 280.066C126.706 278.439 129.403 276.697 131.98 274.847C134.563 273.002 137.026 271.054 139.358 269.009C141.752 266.947 143.911 264.72 145.81 262.355Z" fill="#F9CB30"/>
<path d="M144.758 272.333C141.574 273.509 138.528 274.907 135.655 276.511C132.814 278.07 130.076 279.744 127.451 281.526C124.821 283.303 122.31 285.187 119.928 287.172C117.482 289.174 115.268 291.346 113.312 293.662C116.5 292.49 119.548 291.093 122.42 289.487C125.261 287.929 127.998 286.254 130.619 284.469C133.246 282.689 135.755 280.803 138.138 278.818C140.582 276.816 142.798 274.646 144.758 272.333Z" fill="#F9CB30"/>
<path d="M144.054 282.998C140.885 283.943 137.833 285.119 134.936 286.509C132.076 287.855 129.309 289.321 126.646 290.901C123.978 292.475 121.42 294.164 118.983 295.959C116.48 297.768 114.194 299.759 112.156 301.906C115.327 300.964 118.381 299.79 121.278 298.399C124.138 297.053 126.904 295.586 129.564 294.003C132.228 292.424 134.785 290.735 137.222 288.94C139.724 287.13 142.011 285.141 144.054 282.998Z" fill="#F9CB30"/>
<path d="M144.759 290.735C141.444 291.794 138.252 293.08 135.219 294.58C132.22 296.036 129.316 297.612 126.517 299.3C123.712 300.984 121.019 302.78 118.447 304.683C115.811 306.599 113.393 308.696 111.223 310.949C114.54 309.895 117.734 308.609 120.766 307.108C123.766 305.653 126.669 304.076 129.465 302.384C132.266 300.697 134.958 298.899 137.531 296.997C140.165 295.081 142.584 292.985 144.759 290.735Z" fill="#F9CB30"/>
<path d="M147.218 297.984C143.766 299.258 140.434 300.726 137.246 302.377C134.08 303.986 131.017 305.687 128.03 307.462C125.035 309.227 122.123 311.067 119.263 312.969C116.373 314.853 113.643 316.817 110.652 318.761C112.572 318.51 114.447 318.076 116.236 317.467C118.007 316.88 119.738 316.218 121.421 315.486C124.731 314.016 127.915 312.371 130.949 310.564C133.973 308.764 136.863 306.828 139.605 304.765C142.4 302.695 144.948 300.425 147.218 297.984Z" fill="#F9CB30"/>
<path d="M150.199 305.512C146.469 306.663 142.85 308.028 139.371 309.597C135.913 311.127 132.557 312.769 129.278 314.497C125.999 316.225 122.798 318.042 119.677 319.948C118.117 320.903 116.572 321.876 115.042 322.866C113.561 323.908 111.989 324.864 110.336 325.727C111.372 325.727 112.401 325.587 113.378 325.312C114.358 325.081 115.31 324.801 116.252 324.509C118.129 323.918 119.943 323.241 121.722 322.524C125.254 321.08 128.679 319.476 131.979 317.72C135.279 315.977 138.465 314.103 141.526 312.104C144.641 310.1 147.542 307.896 150.199 305.512Z" fill="#F9CB30"/>
<path d="M116.969 277.375C116.81 274.86 116.341 272.363 115.569 269.92C114.84 267.522 113.939 265.159 112.87 262.842C111.809 260.524 110.579 258.256 109.187 256.05C107.793 253.787 106.119 251.64 104.191 249.639C104.344 252.155 104.811 254.653 105.584 257.096C106.313 259.494 107.216 261.857 108.29 264.172C109.356 266.489 110.588 268.757 111.98 270.962C113.375 273.224 115.046 275.372 116.969 277.375Z" fill="#F9CB30"/>
<path d="M114.884 286.081C114.286 283.578 113.383 281.128 112.189 278.765C111.045 276.44 109.736 274.169 108.269 271.961C106.81 269.751 105.192 267.609 103.423 265.545C101.643 263.426 99.6055 261.45 97.3398 259.646C97.9326 262.15 98.8333 264.601 100.029 266.965C101.173 269.289 102.483 271.56 103.955 273.766C105.419 275.974 107.039 278.116 108.807 280.179C110.588 282.298 112.623 284.274 114.884 286.081Z" fill="#F9CB30"/>
<path d="M113.307 294.499C112.281 291.959 110.96 289.5 109.362 287.154C107.817 284.84 106.118 282.594 104.27 280.425C102.428 278.252 100.439 276.161 98.3093 274.161C96.1642 272.108 93.7812 270.219 91.1914 268.519C92.2123 271.06 93.5315 273.52 95.1315 275.866C96.6747 278.18 98.3765 280.426 100.229 282.592C102.075 284.763 104.066 286.853 106.195 288.853C108.34 290.905 110.721 292.795 113.307 294.499Z" fill="#F9CB30"/>
<path d="M112.153 303.786C110.544 301.041 108.655 298.405 106.505 295.904C104.405 293.416 102.165 291.021 99.7844 288.716C97.4116 286.407 94.9012 284.187 92.2534 282.056C89.595 279.884 86.7142 277.89 83.6406 276.097C85.2437 278.845 87.1312 281.482 89.2837 283.983C91.3831 286.47 93.6247 288.864 96.0086 291.167C98.3872 293.473 100.899 295.692 103.545 297.824C106.205 299.994 109.084 301.988 112.153 303.786Z" fill="#F9CB30"/>
<path d="M111.219 313.417C109.246 310.807 107.009 308.329 104.531 306.008C102.104 303.695 99.5492 301.485 96.8663 299.378C94.191 297.265 91.3904 295.251 88.4646 293.338C85.5231 291.385 82.3837 289.629 79.0781 288.086C81.0454 290.699 83.2809 293.178 85.7621 295.499C88.1887 297.811 90.7449 300.02 93.4307 302.125C96.1112 304.234 98.9134 306.246 101.837 308.161C104.78 310.112 107.918 311.87 111.219 313.417Z" fill="#F9CB30"/>
<path d="M110.655 319.592C108.467 317.341 106.035 315.245 103.388 313.328C100.803 311.426 98.0991 309.628 95.2864 307.941C92.4788 306.249 89.5639 304.672 86.553 303.217C83.5092 301.716 80.3047 300.432 76.9766 299.378C79.1609 301.633 81.5914 303.73 84.2398 305.646C86.8241 307.549 89.5295 309.346 92.3452 311.029C95.1562 312.718 98.0724 314.293 101.083 315.749C104.127 317.248 107.33 318.534 110.655 319.592Z" fill="#F9CB30"/>
<path d="M110.342 324.75C107.717 322.695 104.877 320.821 101.852 319.147C98.8835 317.471 95.8244 315.921 92.675 314.497C89.5304 313.065 86.2979 311.756 82.9775 310.568C79.6268 309.346 76.1502 308.354 72.5859 307.603C75.2078 309.662 78.0472 311.538 81.073 313.211C84.0417 314.887 87.1017 316.435 90.2531 317.857C93.401 319.284 96.6345 320.592 99.9539 321.781C103.305 323.002 106.78 323.995 110.342 324.75Z" fill="#F9CB30"/>
<path d="M110.58 328.096C107.43 326.371 104.108 324.852 100.647 323.554C97.2395 322.248 93.7649 321.085 90.2335 320.043C86.7027 319 83.1101 318.089 79.4557 317.311C75.766 316.502 71.9985 315.936 68.1914 315.619C71.3381 317.349 74.6595 318.87 78.1218 320.166C81.5303 321.472 85.0024 322.641 88.5382 323.673C92.0714 324.71 95.6618 325.626 99.3184 326.4C103.008 327.207 106.775 327.774 110.58 328.096Z" fill="#F9CB30"/>
<path d="M108.872 327.83C107.911 326.559 85.2754 296.612 81.6133 288.862L82.5271 288.589C86.1572 296.274 109.473 327.121 109.708 327.431L108.872 327.83Z" fill="#935B50"/>
<path d="M89.9259 272.537C88.939 274.475 88.1845 276.483 87.6722 278.533C87.1485 280.542 86.7639 282.571 86.5203 284.613C86.2703 286.655 86.1643 288.705 86.2031 290.756C86.2178 292.847 86.4842 294.932 86.9986 296.983C87.9903 295.046 88.7467 293.038 89.2576 290.987C89.7822 288.979 90.165 286.949 90.4042 284.906C90.6497 282.865 90.7538 280.814 90.7162 278.763C90.7 276.673 90.4354 274.588 89.9259 272.537Z" fill="#935B50"/>
<path d="M98.5298 281.877C97.3281 283.683 96.3487 285.576 95.6053 287.531C94.8557 289.442 94.2423 291.385 93.768 293.351C93.2874 295.316 92.9488 297.301 92.7538 299.297C92.5311 301.331 92.5592 303.379 92.8376 305.409C94.0438 303.605 95.025 301.712 95.7673 299.756C96.5173 297.845 97.129 295.902 97.5994 293.935C98.0759 291.97 98.4127 289.985 98.6084 287.989C98.8297 285.955 98.8034 283.908 98.5298 281.877Z" fill="#935B50"/>
<path d="M103.276 292.751C102.218 294.43 101.384 296.191 100.787 298.007C100.184 299.776 99.7191 301.572 99.394 303.386C99.0627 305.2 98.8745 307.028 98.8304 308.86C98.762 310.736 98.944 312.613 99.3735 314.459C100.436 312.782 101.273 311.021 101.868 309.204C102.472 307.436 102.935 305.639 103.256 303.824C103.583 302.01 103.77 300.182 103.814 298.35C103.881 296.474 103.701 294.598 103.276 292.751Z" fill="#935B50"/>
<path d="M109.238 303.605C108.176 305.011 107.328 306.512 106.714 308.077C106.099 309.589 105.62 311.134 105.281 312.699C104.935 314.264 104.732 315.847 104.673 317.434C104.59 319.073 104.756 320.714 105.167 322.321C106.234 320.916 107.084 319.415 107.697 317.849C108.312 316.337 108.79 314.792 109.125 313.226C109.466 311.661 109.668 310.078 109.727 308.49C109.809 306.852 109.645 305.212 109.238 303.605Z" fill="#935B50"/>
<path d="M114.509 310.389C113.425 311.608 112.531 312.926 111.844 314.316C111.172 315.642 110.612 317.003 110.169 318.389C109.73 319.765 109.392 321.16 109.157 322.567C109.048 323.276 108.947 323.981 108.88 324.7C108.846 325.432 108.747 326.162 108.586 326.884C108.811 326.788 109.028 326.679 109.234 326.559L109.76 326.141C110.095 325.855 110.403 325.55 110.68 325.227C111.214 324.606 111.686 323.952 112.094 323.273C112.885 321.953 113.507 320.572 113.95 319.153C114.401 317.746 114.694 316.31 114.824 314.862C114.981 313.367 114.875 311.861 114.509 310.389Z" fill="#935B50"/>
<path d="M84.8083 293.643C83.0378 292.102 81.0457 290.73 78.8728 289.557C76.7792 288.403 74.5871 287.365 72.3122 286.452C70.0407 285.533 67.6901 284.743 65.2781 284.088C62.8006 283.391 60.2277 282.93 57.6133 282.714C59.3798 284.259 61.3712 285.632 63.5455 286.805C65.6386 287.96 67.8321 288.996 70.1094 289.906C72.3834 290.82 74.7347 291.609 77.1464 292.265C79.6237 292.96 82.1952 293.423 84.8083 293.643Z" fill="#935B50"/>
<path d="M90.6396 302.289C88.3754 300.819 85.9214 299.543 83.3187 298.484C80.7911 297.431 78.1835 296.504 75.511 295.708C72.8415 294.906 70.1107 294.239 67.3351 293.711C64.4975 293.146 61.5919 292.824 58.668 292.751C60.9288 294.225 63.3822 295.502 65.986 296.561C68.5132 297.614 71.1217 298.54 73.7961 299.332C76.4676 300.13 79.1989 300.795 81.9744 301.324C84.8118 301.888 87.7164 302.211 90.6396 302.289Z" fill="#935B50"/>
<path d="M97.4926 311.897C95.4767 310.477 93.2626 309.245 90.8935 308.224C88.604 307.215 86.231 306.33 83.7908 305.575C81.3536 304.814 78.8533 304.188 76.3075 303.7C73.6937 303.175 71.0121 302.893 68.3164 302.858C70.329 304.283 72.5427 305.517 74.9132 306.536C77.2022 307.547 79.5762 308.43 82.0183 309.181C84.4575 309.938 86.9584 310.563 89.5039 311.051C92.1174 311.574 94.7978 311.858 97.4926 311.897Z" fill="#935B50"/>
<path d="M102.926 319.294C101.17 318.086 99.2209 317.067 97.1297 316.263C95.1291 315.473 93.0528 314.81 90.9202 314.281C88.7897 313.746 86.6083 313.349 84.3973 313.092C82.1014 312.805 79.7675 312.761 77.457 312.963C79.2101 314.174 81.1586 315.195 83.2511 315.998C85.2514 316.789 87.3287 317.45 89.463 317.975C91.595 318.506 93.7766 318.902 95.9874 319.159C98.2827 319.445 100.615 319.491 102.926 319.294Z" fill="#935B50"/>
<path d="M107.204 325.93C105.274 324.459 103.136 323.17 100.833 322.087C98.6104 321.019 96.2981 320.072 93.9127 319.253C91.5304 318.428 89.0788 317.736 86.5756 317.181C84.0055 316.588 81.3569 316.234 78.6836 316.128C80.6106 317.603 82.7477 318.894 85.0517 319.976C87.2743 321.045 89.5877 321.991 91.9753 322.805C94.3597 323.626 96.8119 324.316 99.3147 324.872C101.885 325.464 104.532 325.819 107.204 325.93Z" fill="#935B50"/>
<path d="M82.9122 289.963C83.2684 287.898 83.2042 285.801 82.7221 283.752C82.2977 281.82 81.6298 279.927 80.7285 278.101C79.8356 276.273 78.7099 274.522 77.3686 272.875C75.9707 271.109 74.2208 269.536 72.1872 268.215C71.823 270.281 71.8841 272.379 72.3682 274.429C72.7918 276.361 73.4626 278.254 74.3704 280.077C75.2701 281.904 76.3987 283.653 77.7393 285.301C79.1378 287.065 80.8844 288.639 82.9122 289.963Z" fill="#935B50"/>
<path d="M210.877 287.483C166.953 250.581 162.128 116.979 255.759 127.338C305.044 132.791 397.456 117.689 459.704 100.829C520.233 84.4351 483.534 209.43 414.822 260.973C346.111 312.516 254.801 324.385 210.877 287.483Z" fill="#FAA900"/>
<path d="M189.125 303.77C212.557 323.457 248.834 331.26 291.275 325.743C333.637 320.237 377.087 302.112 413.62 274.707C441.086 254.103 466.924 219.89 482.734 183.189C497.837 148.128 500.86 117.982 490.622 104.513C484.9 96.9852 475.107 94.8394 462.302 98.3078L462.656 99.1286C475.09 95.7612 484.185 97.7232 489.686 104.961C499.762 118.216 496.702 148.084 481.699 182.908C465.944 219.483 440.214 253.563 412.869 274.077C376.493 301.363 333.247 319.408 291.098 324.887C249.027 330.356 213.094 322.644 189.919 303.174L189.125 303.77Z" fill="#FAA900"/>
<path d="M266.109 186.18C268.4 189.808 269.206 193.914 268.412 197.924C268.35 198.308 268.178 198.676 267.909 198.998C267.64 199.321 267.281 199.591 266.86 199.786C266.557 199.943 266.19 200.001 265.835 199.949C264.509 199.702 263.808 197.389 263.971 194.113C263.331 195.417 262.846 196.765 262.522 198.141C261.66 201.805 262.467 203.492 261.176 204.224C259.694 205.064 256.25 204.194 254.549 202.415C252.67 200.451 253.366 197.708 254.835 192.301C255.396 190.234 256.088 188.191 256.908 186.18H266.109Z" fill="#DD765E"/>
<path d="M551.07 330H60.4973C60.2338 330 59.9812 329.917 59.7949 329.769C59.6086 329.621 59.5039 329.421 59.5039 329.211C59.5039 329.002 59.6086 328.802 59.7949 328.654C59.9812 328.506 60.2338 328.423 60.4973 328.423H551.07C551.333 328.423 551.586 328.506 551.772 328.654C551.958 328.802 552.063 329.002 552.063 329.211C552.063 329.421 551.958 329.621 551.772 329.769C551.586 329.917 551.333 330 551.07 330Z" fill="#935B50"/>
<path d="M279.98 305.011L278.204 313.086C278.204 313.086 267.126 325.139 259.219 314.769L261.83 305.011H279.98Z" fill="#F9977A"/>
<path d="M307.664 305.098L303.555 322.072C303.555 322.072 317.13 326.711 325.037 316.34L324.043 305.483L307.664 305.098Z" fill="#F9977A"/>
<path d="M326.459 179.464L328.234 307.131C328.203 307.585 327.953 308.012 327.537 308.324C327.121 308.637 326.57 308.811 325.998 308.811H305.183C304.882 308.811 304.585 308.763 304.308 308.67C304.031 308.576 303.781 308.44 303.572 308.268C303.363 308.097 303.2 307.894 303.092 307.671C302.984 307.448 302.934 307.211 302.944 306.972L297.935 191.013L281.552 307.347C281.46 307.758 281.188 308.129 280.785 308.397C280.382 308.664 279.873 308.811 279.348 308.811H260.697C260.377 308.811 260.062 308.756 259.771 308.652C259.48 308.547 259.221 308.394 259.01 308.203C258.8 308.012 258.644 307.787 258.552 307.544C258.46 307.302 258.434 307.046 258.477 306.795L272.239 179.464L326.459 179.464Z" fill="#F9CB30"/>
<path d="M312.391 177.839L313.122 194.208L313.773 210.578L315.071 243.319L316.194 276.064L316.754 292.437L317.23 308.811L316.497 292.442L315.847 276.072L314.549 243.331L313.427 210.587L312.868 194.214L312.391 177.839Z" fill="#E6952A"/>
<path d="M287.172 177.839L285.103 194.222L282.952 210.597L278.648 243.347L274.17 276.083L271.928 292.45L269.605 308.811L271.674 292.429L273.824 276.053L278.13 243.304L282.608 210.568L284.85 194.2L287.172 177.839Z" fill="#E6952A"/>
<path d="M317.234 179.464C317.381 180.836 317.637 182.2 317.999 183.546C318.341 184.887 318.85 186.198 319.518 187.459C320.149 188.724 321.075 189.882 322.247 190.875C323.442 191.866 324.968 192.567 326.646 192.896C325.775 192.801 324.927 192.603 324.131 192.309C323.339 191.992 322.609 191.585 321.965 191.102C320.705 190.109 319.71 188.925 319.038 187.621C318.374 186.329 317.894 184.983 317.606 183.606C317.307 182.239 317.183 180.851 317.234 179.464Z" fill="#E6952A"/>
<path d="M280.858 181.877C280.144 183.945 279.043 185.916 277.592 187.723C276.856 188.638 275.937 189.45 274.871 190.129C274.322 190.464 273.7 190.714 273.036 190.867C272.37 191.006 271.667 190.985 271.016 190.808C271.666 190.881 272.329 190.836 272.954 190.675C273.579 190.514 274.15 190.241 274.622 189.879C275.609 189.187 276.463 188.384 277.156 187.495C277.888 186.614 278.552 185.7 279.143 184.755C279.751 183.814 280.313 182.851 280.858 181.877Z" fill="#E6952A"/>
<path d="M278.202 313.086C278.202 313.086 287.902 322.706 282.525 328.375C282.243 328.668 281.879 328.905 281.462 329.067C281.044 329.229 280.585 329.311 280.12 329.308L232.027 329.1C231.807 329.099 231.59 329.061 231.389 328.988C231.189 328.915 231.01 328.81 230.864 328.679C230.718 328.547 230.609 328.393 230.544 328.226C230.478 328.059 230.458 327.883 230.484 327.709C230.76 325.731 248.062 322.385 259.216 314.769C259.216 314.769 273.675 318.068 278.202 313.086Z" fill="#935B50"/>
<path d="M305.764 313.086C305.764 313.086 296.063 322.706 301.44 328.375C301.722 328.668 302.086 328.905 302.504 329.067C302.921 329.229 303.38 329.311 303.845 329.308L351.938 329.1C352.158 329.099 352.376 329.061 352.576 328.988C352.777 328.915 352.956 328.81 353.101 328.679C353.247 328.547 353.356 328.393 353.422 328.226C353.487 328.059 353.508 327.883 353.482 327.709C353.206 325.731 335.903 322.385 324.749 314.769C324.749 314.769 310.291 318.068 305.764 313.086Z" fill="#935B50"/>
<path d="M321.791 79.0658L321.124 86.7269C320.908 89.8347 321.107 92.952 321.719 96.0264C322.421 99.9011 321.102 103.29 318.209 104.94C316.862 105.681 315.266 106.084 313.628 106.098V113.804C314.158 119.981 311.435 125.098 307.811 125.902C303.617 126.832 296.155 122.441 293.648 113.804V95.7796C293.648 95.7796 285.484 94.5856 290.211 88.19C293.019 84.4568 294.676 80.2491 295.044 75.9106L303.853 70.6235L321.791 79.0658Z" fill="#DD765E"/>
<path d="M301.816 82.363C301.685 82.3632 301.557 82.3288 301.452 82.2652C301.348 82.2016 301.273 82.1123 301.239 82.0113C301.205 81.9103 301.214 81.8033 301.265 81.7068C301.316 81.6104 301.405 81.53 301.519 81.4782C304.77 80.0034 308.279 81.4089 308.427 81.4682C308.567 81.526 308.672 81.6255 308.72 81.7449C308.768 81.8643 308.754 81.9939 308.682 82.1053C308.61 82.2167 308.485 82.3009 308.335 82.3394C308.184 82.3779 308.021 82.3675 307.88 82.3107C307.85 82.2983 304.791 81.0862 302.111 82.3007C302.021 82.3415 301.92 82.363 301.816 82.363Z" fill="#1E1D22"/>
<path d="M313.633 82.363C313.501 82.3632 313.373 82.3288 313.269 82.2652C313.164 82.2016 313.089 82.1123 313.055 82.0113C313.021 81.9103 313.031 81.8033 313.081 81.7068C313.132 81.6104 313.222 81.53 313.336 81.4782C316.588 80.0034 320.095 81.4089 320.243 81.4682C320.383 81.526 320.488 81.6255 320.536 81.7449C320.584 81.8643 320.57 81.9939 320.498 82.1053C320.426 82.2167 320.301 82.3009 320.151 82.3394C320.001 82.3779 319.837 82.3675 319.697 82.3107C319.666 82.2983 316.607 81.0862 313.928 82.3007C313.838 82.3415 313.736 82.363 313.633 82.363Z" fill="#1E1D22"/>
<path d="M317.397 88.5881C317.861 88.5753 318.301 88.4199 318.624 88.1548C318.946 87.8897 319.126 87.5355 319.126 87.1668C319.126 86.7982 318.946 86.444 318.624 86.1789C318.301 85.9137 317.861 85.7584 317.397 85.7456C316.933 85.7584 316.493 85.9137 316.171 86.1789C315.848 86.444 315.668 86.7982 315.668 87.1668C315.668 87.5355 315.848 87.8897 316.171 88.1548C316.493 88.4199 316.933 88.5753 317.397 88.5881Z" fill="#1E1D22"/>
<path d="M305.143 88.5026C305.608 88.4898 306.047 88.3345 306.37 88.0694C306.692 87.8043 306.873 87.45 306.873 87.0814C306.873 86.7127 306.692 86.3585 306.37 86.0934C306.047 85.8282 305.608 85.6729 305.143 85.6602C304.679 85.6729 304.24 85.8282 303.917 86.0934C303.594 86.3585 303.414 86.7127 303.414 87.0814C303.414 87.45 303.594 87.8043 303.917 88.0694C304.24 88.3345 304.679 88.4898 305.143 88.5026Z" fill="#1E1D22"/>
<path d="M313.174 93.7852L313.017 92.9981C313.223 92.9853 313.422 92.9299 313.593 92.8374C313.765 92.7448 313.903 92.6184 313.993 92.4706C314.868 91.032 312.629 87.3038 311.691 85.9885L312.566 85.5957C312.937 86.1171 316.157 90.7478 314.898 92.8171C314.736 93.0806 314.493 93.3075 314.192 93.4767C313.891 93.6459 313.54 93.752 313.174 93.7852Z" fill="#DD765E"/>
<path d="M308.699 99.2752C310.593 99.2752 312.129 98.3017 312.129 97.1007C312.129 95.8998 310.593 94.9263 308.699 94.9263C306.805 94.9263 305.27 95.8998 305.27 97.1007C305.27 98.3017 306.805 99.2752 308.699 99.2752Z" fill="#FAA900"/>
<path d="M313.627 106.098C313.627 106.098 307.181 105.836 304.066 103.494C304.066 103.494 308.041 109.765 313.627 110.617V106.098Z" fill="#DD765E"/>
<path d="M326.519 76.7636C326.519 76.7636 326.412 73.2674 318.678 71.7325C310.944 70.1975 309.44 66.7866 304.982 67.7246C302.103 68.4363 299.571 69.8359 297.731 71.7325C297.731 71.7325 283.731 70.0321 290.516 87.7664C290.516 87.7664 295.583 92.454 296.12 88.2756C296.657 84.0971 297.839 76.9342 300.739 75.0581C303.639 73.1821 308.151 75.0581 309.869 76.0814C311.588 77.1047 322.33 83.1591 323.404 82.6475C324.478 82.1359 328.775 81.1126 326.519 76.7636Z" fill="#1E1D22"/>
<path d="M347.668 137.916L354.822 131.838C354.822 131.838 353.943 128.45 361.6 128.45C369.256 128.45 371.264 126.856 371.264 126.856C371.264 126.856 373.397 126.757 372.142 128.351C370.887 129.945 367.373 131.141 366.871 131.24C366.369 131.34 372.538 132.385 372.538 132.385C372.538 132.385 378.041 129.048 378.92 131.738C378.92 131.738 381.681 131.139 381.681 132.385C381.681 132.385 383.94 132.834 383.187 133.93C383.187 133.93 384.499 134.727 383.341 135.425C382.183 136.122 375.154 138.912 375.154 138.912C375.154 138.912 360.093 138.215 358.964 138.912C357.834 139.61 354.445 143.994 354.445 143.994L347.668 137.916Z" fill="#DD765E"/>
<path d="M366.997 135.424C365.871 134.764 364.772 134.117 363.62 133.531C363.047 133.235 362.453 132.97 361.855 132.707C361.241 132.458 360.612 132.234 359.969 132.037C361.378 132.156 362.729 132.549 363.902 133.182C364.492 133.485 365.05 133.826 365.571 134.201C366.097 134.569 366.575 134.979 366.997 135.424Z" fill="#DD765E"/>
<path d="M378.92 131.738C377.808 132.28 376.647 132.756 375.447 133.161C374.848 133.363 374.249 133.563 373.634 133.734C373.022 133.916 372.398 134.072 371.766 134.204C372.319 133.927 372.889 133.672 373.474 133.441C374.051 133.201 374.645 132.991 375.239 132.781C376.432 132.362 377.662 132.013 378.92 131.738Z" fill="#DD765E"/>
<path d="M381.679 132.385C380.349 133.117 378.966 133.786 377.535 134.387C376.821 134.686 376.107 134.984 375.373 135.254C374.642 135.528 373.907 135.796 373.145 136.023C373.804 135.643 374.492 135.305 375.183 134.973C375.872 134.636 376.58 134.328 377.288 134.021C378.71 133.407 380.176 132.861 381.679 132.385Z" fill="#DD765E"/>
<path d="M383.186 133.93C382.046 134.586 380.851 135.18 379.608 135.706C378.989 135.968 378.368 136.229 377.728 136.461C377.091 136.698 376.45 136.928 375.781 137.118C376.347 136.777 376.94 136.476 377.537 136.181C378.131 135.882 378.745 135.611 379.359 135.342C380.593 134.802 381.872 134.33 383.186 133.93Z" fill="#DD765E"/>
<path d="M374.398 137.118C373.558 136.678 372.747 136.204 371.968 135.698C371.19 135.199 370.432 134.707 369.629 134.204C370.123 134.314 370.597 134.477 371.037 134.688C371.478 134.89 371.898 135.12 372.295 135.374C372.691 135.626 373.067 135.898 373.419 136.188C373.779 136.475 374.107 136.786 374.398 137.118Z" fill="#DD765E"/>
<path d="M354.946 144.592L346.662 136.92L341.014 142.001C341.014 142.001 338.378 118.985 329.216 115.398C320.054 111.811 313.778 109.918 313.778 109.918C314.399 115.773 308.587 120.2 303.298 120.031C297.913 119.86 292.496 114.907 293.948 109.021C288.678 109.63 274.746 109.217 269.223 117.889C263.575 126.757 253.785 155.054 253.785 155.054L255.612 187.327H268.851L271.482 155.352L278.761 138.614L272.235 179.465C280.798 182.389 290.023 183.897 299.345 183.897C308.667 183.897 317.891 182.389 326.455 179.465V169.052C326.455 169.052 337.186 167.259 340.951 163.672C344.717 160.085 354.946 144.592 354.946 144.592Z" fill="#E7EB26"/>
<path d="M329.473 152.538C331.234 150.669 333.148 148.905 335.05 147.133C336.027 146.265 336.988 145.386 337.982 144.53C338.976 143.674 339.976 142.822 341.02 142.001C340.139 142.936 339.214 143.841 338.284 144.741C337.353 145.64 336.389 146.517 335.443 147.406C333.495 149.146 331.56 150.894 329.473 152.538Z" fill="black"/>
<path d="M326.461 169.053C326.043 165.674 325.823 162.281 325.734 158.886C325.642 155.49 325.721 152.092 325.893 148.698C326.107 145.305 326.485 141.921 327.025 138.547C327.593 135.179 328.41 131.841 329.473 128.55C329.071 130.218 328.599 131.872 328.313 133.553C327.939 135.222 327.693 136.906 327.424 138.586C326.965 141.955 326.588 145.331 326.415 148.718C326.2 152.102 326.129 155.492 326.134 158.882C326.137 160.577 326.167 162.272 326.225 163.968C326.263 165.663 326.342 167.358 326.461 169.053Z" fill="black"/>
<path d="M278.762 138.613C279.009 137.826 279.35 137.059 279.779 136.323C279.993 135.957 280.209 135.592 280.461 135.24C280.703 134.881 280.974 134.535 281.272 134.204C281.156 134.6 281.007 134.99 280.828 135.372C280.662 135.755 280.459 136.124 280.255 136.494C279.842 137.236 279.342 137.945 278.762 138.613Z" fill="black"/>
<path d="M271.483 155.352C269.486 154.856 267.418 154.56 265.328 154.472C264.293 154.441 263.257 154.491 262.234 154.621C261.205 154.771 260.202 155.016 259.246 155.352C260.127 154.868 261.111 154.515 262.15 154.308C263.196 154.108 264.272 154.024 265.348 154.058C266.417 154.096 267.478 154.226 268.513 154.445C269.544 154.653 270.542 154.958 271.483 155.352Z" fill="black"/>
<path d="M282.214 129.746C282.401 128.323 282.392 126.888 282.186 125.466C281.997 124.055 281.557 122.673 280.88 121.36C280.225 120.043 279.253 118.839 278.018 117.817C276.773 116.787 275.329 115.92 273.742 115.249C275.441 115.787 276.991 116.584 278.306 117.594C279.626 118.616 280.667 119.844 281.362 121.201C282.04 122.555 282.453 123.984 282.585 125.437C282.726 126.88 282.601 128.331 282.214 129.746Z" fill="black"/>
<path d="M317.231 173.387C314.145 173.38 311.068 173.138 308.041 172.665C305.003 172.201 302.03 171.5 299.165 170.572C296.298 169.63 293.616 168.366 291.202 166.817C290.017 166.026 288.922 165.153 287.929 164.209C286.971 163.248 286.129 162.217 285.414 161.131C286.991 163.223 289.039 165.066 291.456 166.569C292.663 167.311 293.931 167.988 295.251 168.598C296.583 169.191 297.957 169.723 299.367 170.19C302.196 171.122 305.126 171.847 308.122 172.354C309.618 172.617 311.126 172.834 312.648 173.003C314.166 173.182 315.694 173.326 317.231 173.387Z" fill="black"/>
<path d="M378.249 125.502C392.062 125.502 403.26 116.613 403.26 105.647C403.26 94.6815 392.062 85.792 378.249 85.792C364.436 85.792 353.238 94.6815 353.238 105.647C353.238 116.613 364.436 125.502 378.249 125.502Z" fill="#C0D6F2"/>
<path d="M398.822 94.3602C400.772 96.5987 402.122 99.1319 402.786 101.802C403.45 104.472 403.416 107.223 402.684 109.882C402.668 109.889 402.653 109.898 402.637 109.905C401.951 110.196 400.478 110.42 399.759 109.905C399.367 109.417 399.066 108.886 398.866 108.329C398.506 107.582 398.431 107.339 398.073 107.148C397.617 106.905 397.234 107.031 396.981 106.754C396.754 106.505 396.972 106.304 396.882 105.887C396.672 105.331 396.213 104.855 395.592 104.548C394.739 104.003 394.3 104.061 394.147 103.689C394.052 103.456 394.159 103.274 394.599 102.5C394.948 101.967 395.247 101.414 395.492 100.846C395.575 100.165 395.402 99.4797 394.996 98.8764C394.355 97.4137 394.602 97.1493 394.103 95.6466C393.099 92.6198 391.355 91.4549 391.722 91.1564C392.174 90.7886 395.636 91.8961 398.822 94.3602Z" fill="#BA8F4B"/>
<path d="M356.824 95.4006C358.552 93.9888 360.201 93.2057 360.663 93.4407C360.864 93.5431 360.732 93.7836 361.06 94.386C361.373 94.9625 362.136 95.9246 363.044 95.9615C363.451 95.9781 363.639 95.7988 364.93 94.9374C366.852 93.6547 367.182 93.5536 367.51 93.5982C368.348 93.7124 369.016 94.7589 368.701 95.1738C368.392 95.5808 367.277 95.1957 366.914 95.6464C366.81 95.8903 366.812 96.155 366.92 96.3979C367.028 96.6408 367.236 96.8478 367.51 96.9856C367.841 97.1031 368.202 97.1572 368.564 97.1435C368.926 97.1298 369.278 97.0487 369.594 96.9068C370.449 96.6869 371.184 96.2423 371.678 95.6464C372.208 94.9516 372.047 94.4067 372.471 94.3072C372.856 94.2171 373.4 94.5677 373.662 94.9374C374.115 95.5758 373.564 96.04 373.96 96.513C374.469 97.1222 375.751 96.7916 375.944 97.222C376.124 97.6209 375.193 98.282 374.456 98.6399C373.543 99.083 373.233 98.9127 372.074 99.2701C370.342 99.8047 370.458 100.364 368.899 100.767C367.545 101.117 367.093 100.788 366.517 101.24C366.044 101.61 365.971 102.196 365.823 103.366C365.705 104.297 365.841 104.519 365.922 104.627C366.134 104.879 366.437 105.074 366.791 105.187C367.145 105.299 367.534 105.324 367.907 105.257C368.302 105.174 368.567 104.965 369.097 104.548C369.705 104.07 369.706 103.887 370.09 103.76C370.681 103.565 370.961 103.904 371.479 103.76C372.168 103.569 372.444 102.754 372.769 101.791C373.097 100.819 373.026 100.411 373.464 100.215C373.821 100.055 374.043 100.249 374.853 100.215C375.47 100.155 376.072 100.023 376.639 99.8215C377.351 99.6222 378.081 99.4643 378.822 99.3489C379.897 99.2432 380.988 99.3515 381.998 99.664C383.287 99.9248 384.458 100.471 385.371 101.239C385.867 101.629 386.255 102.097 386.511 102.612C386.768 103.127 386.886 103.679 386.86 104.233C386.73 105.113 386.201 105.925 385.371 106.517C384.222 107.314 383.452 106.944 382.394 107.699C381.55 108.372 381.054 109.271 381.005 110.22C380.977 110.629 381.025 111.196 382.593 113.765C383.813 115.763 384.132 115.99 384.28 116.837C384.445 117.784 384.384 119.444 383.287 119.909C382.68 120.167 382.384 119.792 380.013 119.594C379.125 119.501 378.228 119.475 377.334 119.515C375.988 119.588 375.825 119.776 375.051 119.673C374.197 119.528 373.408 119.201 372.769 118.728C371.786 118.091 371.88 117.804 370.884 117.152C370.273 116.774 369.606 116.457 368.899 116.207C367.449 115.624 367.062 115.651 365.823 115.104C364.742 114.627 363.907 114.249 363.937 113.765C363.987 113.583 364.095 113.414 364.252 113.276C364.408 113.138 364.608 113.035 364.83 112.977C365.575 112.748 365.983 113.191 366.617 112.977C366.925 112.837 367.175 112.628 367.334 112.376C367.493 112.123 367.554 111.839 367.51 111.559C367.454 111.11 367.108 110.538 366.716 110.535C366.219 110.531 366.246 111.446 365.327 111.874C364.916 112.026 364.462 112.091 364.011 112.063C363.559 112.036 363.124 111.916 362.747 111.717C362.071 111.386 361.283 110.678 361.457 110.062C361.589 109.592 362.178 109.543 362.35 108.959C362.463 108.575 362.37 108.043 362.052 107.935C361.453 107.733 360.198 109.076 359.571 109.747C358.54 110.851 358.024 111.403 357.884 112.189C357.714 113.147 358.145 113.785 357.587 114.237C357.428 114.354 357.239 114.442 357.034 114.497C356.829 114.551 356.611 114.57 356.396 114.553C356.188 114.535 355.986 114.485 355.802 114.406C353.956 111.423 353.083 108.12 353.261 104.8C353.44 101.479 354.665 98.2478 356.824 95.4006Z" fill="#BA8F4B"/>
<path d="M399.008 90.8607C401.487 90.5891 403.992 90.4948 406.492 90.5792C409.065 90.5896 411.595 91.1074 413.854 92.0859C414.447 92.3775 414.956 92.7651 415.348 93.2234C415.74 93.6816 416.005 94.2003 416.127 94.7456C416.275 95.8331 415.997 96.9304 415.33 97.8876C414.073 99.6794 412.421 101.277 410.453 102.605C406.631 105.23 402.434 107.489 397.948 109.336C393.506 111.203 388.906 112.824 384.183 114.189C379.46 115.552 374.627 116.661 369.716 117.509C364.79 118.386 359.758 118.83 354.71 118.833C352.144 118.844 349.591 118.556 347.13 117.979C345.848 117.667 344.667 117.136 343.67 116.424C343.159 116.042 342.765 115.571 342.518 115.05C342.271 114.528 342.177 113.968 342.243 113.413C342.409 112.371 342.898 111.377 343.664 110.521C344.371 109.683 345.187 108.908 346.099 108.207C347.892 106.82 349.86 105.582 351.97 104.512C350.001 105.713 348.165 107.045 346.482 108.494C345.654 109.21 344.924 109.994 344.304 110.832C343.675 111.625 343.301 112.527 343.215 113.461C343.185 113.895 343.281 114.328 343.496 114.728C343.71 115.127 344.038 115.483 344.453 115.766C345.352 116.345 346.398 116.763 347.52 116.992C349.87 117.463 352.292 117.669 354.714 117.603C359.634 117.482 364.526 116.962 369.313 116.05C374.129 115.181 378.869 114.064 383.504 112.708C388.153 111.385 392.686 109.818 397.073 108.018C401.473 106.273 405.618 104.149 409.433 101.684C411.313 100.488 412.919 99.0438 414.179 97.414C414.776 96.6516 415.063 95.7623 415.002 94.8662C414.923 94.4335 414.731 94.0186 414.438 93.6484C414.145 93.2781 413.758 92.9608 413.301 92.7167C411.228 91.7066 408.876 91.115 406.449 90.9936C403.976 90.8051 401.489 90.7607 399.008 90.8607Z" fill="#F9E0C0"/>
<path d="M367.813 118.479L365.255 118.875L365.935 116.135L364.008 113.798L366.566 113.402L367.662 114.299L373.17 113.434L368.762 108.855L371.32 108.458L377.022 112.837L381.483 112.146C381.992 112.068 382.519 112.154 382.948 112.383C383.377 112.613 383.674 112.969 383.773 113.373C383.873 113.776 383.766 114.195 383.477 114.536C383.188 114.877 382.74 115.113 382.232 115.193L377.815 115.876L374.59 121.642L372.032 122.038L373.928 116.478L368.408 117.333L367.813 118.479Z" fill="#E7EB26"/>
<path d="M207.421 191.064H177.275C175.676 191.064 174.143 191.569 173.012 192.466C171.881 193.364 171.246 194.581 171.246 195.851L171.246 226.976H177.275V198.244C177.275 197.609 177.593 197 178.158 196.552C178.723 196.103 179.49 195.851 180.29 195.851H204.406C205.206 195.851 205.972 196.103 206.538 196.552C207.103 197 207.421 197.609 207.421 198.244V226.976H213.45L213.45 195.851C213.45 195.222 213.294 194.6 212.991 194.019C212.688 193.438 212.244 192.911 211.684 192.466C211.124 192.022 210.459 191.669 209.728 191.429C208.996 191.188 208.212 191.064 207.421 191.064Z" fill="#935B50"/>
<path d="M161.907 315.532L161.895 315.541C161.15 315.6 160.459 315.876 159.956 316.317C159.454 316.757 159.176 317.33 159.176 317.925V322.711C159.176 324.616 160.129 326.444 161.826 327.791C163.524 329.138 165.825 329.895 168.225 329.895C170.626 329.895 172.927 329.138 174.625 327.791C176.322 326.444 177.275 324.616 177.275 322.711V317.925C177.272 317.293 176.955 316.689 176.392 316.242C175.83 315.796 175.068 315.544 174.273 315.541H162.214C162.112 315.533 162.01 315.53 161.907 315.532Z" fill="#935B50"/>
<path d="M210.141 315.532L210.129 315.541C209.384 315.6 208.693 315.876 208.191 316.317C207.688 316.757 207.41 317.33 207.41 317.925V322.711C207.41 324.616 208.364 326.444 210.061 327.791C211.758 329.138 214.06 329.895 216.46 329.895C218.86 329.895 221.162 329.138 222.859 327.791C224.556 326.444 225.51 324.616 225.51 322.711V317.925C225.506 317.293 225.189 316.689 224.627 316.242C224.064 315.796 223.302 315.544 222.507 315.541H210.449C210.347 315.533 210.244 315.53 210.141 315.532Z" fill="#935B50"/>
<path d="M156.172 224.593C153.78 224.601 151.489 225.359 149.797 226.702C148.106 228.045 147.151 229.863 147.141 231.762V313.138C147.15 315.039 148.103 316.861 149.794 318.207C151.486 319.553 153.778 320.315 156.172 320.327H228.521C230.918 320.316 233.213 319.555 234.909 318.209C236.604 316.863 237.562 315.041 237.577 313.138V231.762C237.561 229.862 236.601 228.042 234.906 226.7C233.21 225.357 230.916 224.6 228.521 224.593H156.172Z" fill="#BA8F4B"/>
<path d="M192.286 238.923C191.49 238.934 190.733 239.196 190.179 239.65C189.625 240.103 189.321 240.713 189.332 241.345V303.556C189.332 304.191 189.649 304.8 190.215 305.248C190.78 305.697 191.547 305.949 192.346 305.949C193.146 305.949 193.913 305.697 194.478 305.248C195.043 304.8 195.361 304.191 195.361 303.556V241.345C195.368 241.023 195.292 240.704 195.138 240.406C194.984 240.109 194.755 239.839 194.466 239.615C194.181 239.387 193.841 239.208 193.466 239.089C193.091 238.97 192.69 238.914 192.286 238.923ZM167.877 248.495C167.133 248.563 166.446 248.849 165.952 249.297C165.458 249.744 165.191 250.322 165.204 250.917V293.984C165.206 294.619 165.525 295.227 166.091 295.675C166.657 296.124 167.424 296.376 168.224 296.376C169.024 296.376 169.791 296.124 170.357 295.675C170.923 295.227 171.243 294.619 171.245 293.984V250.917C171.251 250.577 171.165 250.239 170.995 249.926C170.825 249.614 170.573 249.333 170.256 249.103C169.938 248.872 169.561 248.698 169.15 248.593C168.74 248.488 168.306 248.455 167.877 248.495ZM215.776 248.495C215.031 248.563 214.344 248.849 213.85 249.297C213.356 249.744 213.089 250.322 213.102 250.917V293.984C213.103 294.619 213.422 295.228 213.988 295.677C214.555 296.125 215.322 296.377 216.122 296.377C216.922 296.377 217.69 296.125 218.256 295.677C218.822 295.228 219.141 294.619 219.143 293.984V250.917C219.149 250.577 219.064 250.239 218.893 249.926C218.723 249.614 218.471 249.333 218.154 249.103C217.836 248.872 217.459 248.698 217.048 248.593C216.638 248.488 216.204 248.455 215.776 248.495Z" fill="#47371C"/>
<path d="M399.89 255.169C397.709 255.176 395.619 255.864 394.074 257.086C392.529 258.308 391.653 259.964 391.637 261.695V270.408H397.135V261.695C397.127 261.406 397.193 261.119 397.329 260.851C397.464 260.583 397.667 260.339 397.924 260.135C398.182 259.93 398.489 259.769 398.826 259.662C399.164 259.554 399.526 259.502 399.89 259.508H416.353C416.716 259.503 417.076 259.556 417.412 259.664C417.748 259.773 418.053 259.934 418.308 260.138C418.564 260.343 418.764 260.586 418.898 260.854C419.032 261.121 419.096 261.408 419.086 261.695V270.408H424.574V261.695C424.564 259.967 423.695 258.311 422.156 257.089C420.616 255.867 418.531 255.177 416.353 255.169H399.89Z" fill="#E7EB26"/>
<path d="M361.459 268.222C359.279 268.233 357.193 268.926 355.654 270.151C354.114 271.377 353.246 273.035 353.238 274.765V322.686C353.247 324.414 354.116 326.07 355.656 327.293C357.196 328.515 359.281 329.205 361.459 329.212H454.749C456.929 329.205 459.018 328.516 460.561 327.294C462.104 326.072 462.978 324.416 462.992 322.686V274.765C462.979 273.033 462.106 271.375 460.563 270.15C459.02 268.925 456.931 268.232 454.749 268.222H361.459Z" fill="#BA8F4B"/>
<path d="M372.438 268.222V329.212H383.413V268.222H372.438ZM432.791 268.222V329.212H443.777V268.222H432.791Z" fill="#E7EB26"/>
<path d="M397.131 292.182C396.771 292.182 396.413 292.238 396.08 292.348C395.746 292.458 395.444 292.619 395.19 292.822C394.935 293.026 394.735 293.267 394.599 293.533C394.463 293.798 394.395 294.083 394.399 294.369V303.082C394.398 303.367 394.469 303.649 394.606 303.913C394.743 304.176 394.944 304.415 395.198 304.617C395.452 304.818 395.753 304.978 396.085 305.087C396.417 305.196 396.772 305.252 397.131 305.251H419.082C419.443 305.254 419.801 305.2 420.136 305.093C420.47 304.985 420.774 304.825 421.03 304.623C421.287 304.422 421.49 304.182 421.628 303.917C421.767 303.652 421.838 303.368 421.837 303.082V294.369C421.839 294.081 421.769 293.796 421.631 293.53C421.493 293.265 421.29 293.023 421.033 292.82C420.514 292.412 419.813 292.183 419.082 292.182H397.131Z" fill="#F9CB30"/>
<defs>
<linearGradient id="paint0_linear_32_11" x1="525" y1="0" x2="525" y2="328.168" gradientUnits="userSpaceOnUse">
<stop stop-color="#F9CB30"/>
<stop offset="0.740525" stop-color="white"/>
<stop offset="0.740625" stop-color="white" stop-opacity="0.0884619"/>
<stop offset="0.8125" stop-color="white" stop-opacity="0"/>
<stop offset="0.855208" stop-color="white" stop-opacity="0"/>
<stop offset="0.964583" stop-color="white" stop-opacity="0"/>
<stop offset="1" stop-color="white" stop-opacity="0"/>
</linearGradient>
</defs>
</svg>
