<svg width="356" height="269" viewBox="0 0 356 269" fill="none" xmlns="http://www.w3.org/2000/svg">
<rect x="1" y="1" width="354" height="267" rx="25" fill="#BA8F4B" stroke="black" stroke-width="2"/>
<path d="M32.1785 96.0967C24.9622 96.0967 19.1055 102.509 19.1055 110.409C19.1055 118.309 24.9622 124.721 32.1785 124.721C39.3948 124.721 45.2515 118.309 45.2515 110.409C45.2515 102.509 39.4079 96.0967 32.1785 96.0967ZM37.7475 112.169C37.7475 114.545 35.9957 116.463 33.8256 116.463H30.6098C28.4396 116.463 26.6878 114.545 26.6878 112.169V108.649C26.6878 106.273 28.4396 104.355 30.6098 104.355H33.8256C35.9957 104.355 37.7475 106.273 37.7475 108.649V112.169Z" fill="#292D32"/>
<path d="M312 138.028L25 136" stroke="black"/>
<path d="M312 68.0283L25 66" stroke="black"/>
<path d="M32.1785 23.5132C24.9622 23.5132 19.1055 29.9251 19.1055 37.8255C19.1055 45.7258 24.9622 52.1377 32.1785 52.1377C39.3948 52.1377 45.2515 45.7258 45.2515 37.8255C45.2515 29.9251 39.4079 23.5132 32.1785 23.5132ZM37.7475 39.5859C37.7475 41.9617 35.9957 43.8795 33.8256 43.8795H30.6098C28.4396 43.8795 26.6878 41.9617 26.6878 39.5859V36.065C26.6878 33.6892 28.4396 31.7714 30.6098 31.7714H33.8256C35.9957 31.7714 37.7475 33.6892 37.7475 36.065V39.5859Z" fill="#292D32"/>
</svg>
