<svg width="64" height="64" viewBox="0 0 64 64" fill="none" xmlns="http://www.w3.org/2000/svg">
<g filter="url(#filter0_b_32_55)">
<path d="M32.3231 0C14.9005 0 0.703125 14.1974 0.703125 31.62C0.703125 49.0426 14.9005 63.24 32.3231 63.24C49.7457 63.24 63.9431 49.0426 63.9431 31.62C63.9431 14.1974 49.7457 0 32.3231 0ZM41.1451 33.2959L29.9832 44.4577C29.5089 44.932 28.9082 45.1534 28.3074 45.1534C27.7066 45.1534 27.1058 44.932 26.6315 44.4577C25.7145 43.5407 25.7145 42.023 26.6315 41.106L36.1175 31.62L26.6315 22.134C25.7145 21.217 25.7145 19.6993 26.6315 18.7823C27.5485 17.8653 29.0663 17.8653 29.9832 18.7823L41.1451 29.9441C42.0937 30.8611 42.0937 32.3789 41.1451 33.2959Z" fill="#FDD30A"/>
<path d="M1.70312 31.62C1.70312 14.7497 15.4528 1 32.3231 1C49.1935 1 62.9431 14.7497 62.9431 31.62C62.9431 48.4903 49.1935 62.24 32.3231 62.24C15.4528 62.24 1.70312 48.4903 1.70312 31.62ZM30.6904 45.1648L41.8467 34.0085C43.1931 32.6999 43.1932 30.5402 41.8468 29.2316L30.6904 18.0752C29.3829 16.7677 27.2319 16.7677 25.9244 18.0752C24.6169 19.3827 24.6169 21.5336 25.9244 22.8411L34.7033 31.62L25.9244 40.3989C24.6169 41.7064 24.6169 43.8573 25.9244 45.1648C26.5961 45.8365 27.4557 46.1534 28.3074 46.1534C29.1591 46.1534 30.0186 45.8365 30.6904 45.1648Z" stroke="black" stroke-width="2"/>
</g>
<defs>
<filter id="filter0_b_32_55" x="-14.2969" y="-15" width="93.2383" height="93.2402" filterUnits="userSpaceOnUse" color-interpolation-filters="sRGB">
<feFlood flood-opacity="0" result="BackgroundImageFix"/>
<feGaussianBlur in="BackgroundImageFix" stdDeviation="7.5"/>
<feComposite in2="SourceAlpha" operator="in" result="effect1_backgroundBlur_32_55"/>
<feBlend mode="normal" in="SourceGraphic" in2="effect1_backgroundBlur_32_55" result="shape"/>
</filter>
</defs>
</svg>
