<svg width="30" height="34" viewBox="0 0 30 34" fill="none" xmlns="http://www.w3.org/2000/svg">
<path d="M15 0C12.0333 0 9.13319 0.997032 6.66645 2.86502C4.19972 4.733 2.27713 7.38804 1.14181 10.4944C0.00649926 13.6007 -0.290551 17.0189 0.288228 20.3165C0.867006 23.6142 2.29562 26.6433 4.3934 29.0208C6.49119 31.3983 9.16394 33.0174 12.0737 33.6733C14.9834 34.3293 17.9994 33.9926 20.7403 32.7059C23.4811 31.4193 25.8238 29.2403 27.472 26.4447C29.1203 23.6491 30 20.3623 30 17C30 14.7675 29.612 12.5569 28.8582 10.4944C28.1044 8.43184 26.9995 6.55778 25.6066 4.97918C24.2137 3.40059 22.5601 2.14838 20.7403 1.29405C18.9204 0.439718 16.9698 0 15 0ZM15 30.6C12.6266 30.6 10.3066 29.8024 8.33316 28.308C6.35977 26.8136 4.8217 24.6896 3.91345 22.2045C3.0052 19.7194 2.76756 16.9849 3.23058 14.3468C3.69361 11.7086 4.83649 9.28534 6.51472 7.38335C8.19295 5.48135 10.3312 4.18608 12.6589 3.66132C14.9867 3.13656 17.3995 3.40589 19.5922 4.43524C21.7849 5.46459 23.6591 7.20773 24.9776 9.44424C26.2962 11.6807 27 14.3102 27 17C27 20.6069 25.7357 24.0662 23.4853 26.6166C21.2348 29.1671 18.1826 30.6 15 30.6ZM21 15.3H16.5V10.2C16.5 9.74913 16.342 9.31673 16.0607 8.99792C15.7794 8.6791 15.3978 8.5 15 8.5C14.6022 8.5 14.2206 8.6791 13.9393 8.99792C13.658 9.31673 13.5 9.74913 13.5 10.2V15.3H9C8.60218 15.3 8.22065 15.4791 7.93935 15.7979C7.65804 16.1167 7.50001 16.5491 7.50001 17C7.50001 17.4509 7.65804 17.8833 7.93935 18.2021C8.22065 18.5209 8.60218 18.7 9 18.7H13.5V23.8C13.5 24.2509 13.658 24.6833 13.9393 25.0021C14.2206 25.3209 14.6022 25.5 15 25.5C15.3978 25.5 15.7794 25.3209 16.0607 25.0021C16.342 24.6833 16.5 24.2509 16.5 23.8V18.7H21C21.3978 18.7 21.7794 18.5209 22.0607 18.2021C22.342 17.8833 22.5 17.4509 22.5 17C22.5 16.5491 22.342 16.1167 22.0607 15.7979C21.7794 15.4791 21.3978 15.3 21 15.3Z" fill="black"/>
</svg>
